# This file uses centimeters as units for non-parametric coordinates.

mtllib dead shrub2.mtl
g default
v 0.187920 1.484705 -0.552769
v 0.187920 1.484705 0.455321
v 0.517201 1.594940 -0.048724
v -0.171141 2.865031 -0.048724
v 0.150562 2.469314 -0.362373
v 0.218364 2.573750 -0.048724
v 0.150562 2.469314 0.264925
v -0.021940 2.333691 -0.048724
v -0.018555 1.214992 -0.611594
v 0.310726 1.060470 -0.048724
v -0.347836 1.060470 -0.048724
v 0.287810 1.726184 -0.501605
v 0.287810 1.726184 0.404157
v -0.024268 2.087403 -0.048724
v -0.526060 2.316232 -0.189338
v -0.649714 2.495301 -0.382783
v -0.477493 2.316380 -0.394185
v -0.279433 1.835062 0.039848
v -0.355724 2.245478 -0.202332
v -0.198390 1.835309 -0.301973
v -0.016043 1.780623 0.268657
v -0.175709 2.166441 -0.048875
v -0.016294 1.780746 -0.367125
v 0.767537 1.649932 0.165556
v 0.994445 1.832332 0.186127
v 0.878349 1.649932 -0.076554
v 0.486076 1.475456 0.211907
v 0.678706 1.720965 -0.048724
v 0.486076 1.475456 -0.309355
v 0.983449 1.546846 0.343855
v 1.210357 1.651211 0.364425
v 1.094261 1.546846 0.101745
v 0.624316 1.570771 0.103694
v 0.836765 1.802958 0.031492
v 0.709048 1.570771 -0.172558
v -0.498085 2.424526 -0.375212
v 1.080809 1.759884 0.257446
v -0.336348 1.185162 -0.980654
v -0.104978 1.160124 -0.975310
v -0.251543 1.160124 -0.719949
v -0.174277 1.279378 -0.847028
v 0.113571 0.990028 -0.648262
v -0.106293 1.210822 -0.731110
v -0.230744 0.990028 -0.531821
v 0.187920 1.484705 -0.552769
v 0.517201 1.594940 -0.048724
v 0.517201 1.594940 -0.048724
v -0.018555 1.214992 -0.611594
v -0.018555 1.214992 -0.611594
v 0.310726 1.060470 -0.048724
v 0.287810 1.726184 -0.501605
v 0.287810 1.726184 0.404157
v -0.024268 2.087403 -0.048724
v -0.024268 2.087403 -0.048724
v -0.024268 2.087403 -0.048724
v -0.018555 0.044184 -0.525291
v -0.495122 0.044184 -0.048724
v -0.347836 1.060470 -0.048724
v -0.018555 1.214992 -0.611594
v -0.495122 0.044184 -0.048724
v -0.018555 0.044184 0.427843
v -0.018555 0.921835 0.514146
v -0.347836 1.060470 -0.048724
v -0.018555 0.044184 0.427843
v 0.458012 0.044184 -0.048724
v 0.310726 1.060470 -0.048724
v -0.018555 0.921835 0.514146
v 0.458012 0.044184 -0.048724
v -0.018555 0.044184 -0.525291
v -0.018555 1.214992 -0.611594
v 0.310726 1.060470 -0.048724
v 0.187920 1.484705 -0.552769
v -0.141361 1.484705 -0.048724
v -0.024268 2.087403 -0.048724
v 0.287810 1.726184 -0.501605
v -0.141361 1.484705 -0.048724
v 0.187920 1.484705 0.455321
v 0.287810 1.726184 0.404157
v -0.024268 2.087403 -0.048724
v 0.187920 1.484705 0.455321
v 0.517201 1.594940 -0.048724
v 0.447378 2.045359 -0.048724
v 0.287810 1.726184 0.404157
v 0.517201 1.594940 -0.048724
v 0.187920 1.484705 -0.552769
v 0.287810 1.726184 -0.501605
v 0.447378 2.045359 -0.048724
v -0.018555 0.921835 0.514146
v 0.310726 1.060470 -0.048724
v 0.517201 1.594940 -0.048724
v 0.187920 1.484705 0.455321
v -0.347836 1.060470 -0.048724
v -0.018555 0.921835 0.514146
v 0.187920 1.484705 0.455321
v -0.141361 1.484705 -0.048724
v -0.018555 1.214992 -0.611594
v -0.347836 1.060470 -0.048724
v -0.141361 1.484705 -0.048724
v 0.187920 1.484705 -0.552769
v 0.447378 2.045359 -0.048724
v 0.287810 1.726184 -0.501605
v 0.150562 2.469314 -0.362373
v 0.218364 2.573750 -0.048724
v 0.287810 1.726184 0.404157
v 0.447378 2.045359 -0.048724
v 0.218364 2.573750 -0.048724
v 0.150562 2.469314 0.264925
vt 0.355676 0.813861
vt 0.222449 0.778751
vt 0.488904 0.778751
vt 0.355676 0.911785
vt 0.000000 0.204631
vt 0.034536 0.092110
vt 0.066497 0.224081
vt 0.059921 0.253748
vt 0.301542 0.063753
vt 0.402780 0.143031
vt 0.468186 0.227916
vt 0.413348 0.227916
vt 0.449719 0.178275
vt 0.521855 0.201791
vt 0.402780 0.312802
vt 0.301542 0.392080
vt 0.498349 0.158127
vt 0.575394 0.151427
vt 0.478489 0.268248
vt 0.535974 0.236980
vt 0.977730 0.079904
vt 0.919456 0.114984
vt 0.948004 0.033227
vt 0.997547 0.111022
vt 0.947654 0.192780
vt 0.096745 0.006777
vt 0.123719 0.000012
vt 0.079093 0.056593
vt 0.307202 0.078294
vt 0.360950 0.176093
vt 0.339601 0.202646
vt 0.276825 0.144677
vt 0.307579 0.242475
vt 0.826275 0.274815
vt 0.864919 0.326844
vt 0.834389 0.381554
vt 0.771157 0.197791
vt 0.842703 0.279385
vt 0.793983 0.000000
vt 0.844054 0.230452
vt 0.871538 0.355872
vt 0.850250 0.126940
vt 0.916978 0.095305
vt 0.901655 0.002057
vt 0.937696 0.051042
vt 0.909223 0.000017
vt 0.166661 0.409710
vt 0.203868 0.300994
vt 0.312427 0.409710
vt 0.203868 0.518426
vt 0.132181 0.214568
vt 0.220051 0.243426
vt 0.282776 0.297275
vt 0.215336 0.307857
vt 0.049163 0.114938
vt 0.164372 0.175334
vt 0.285523 0.354630
vt 0.000000 0.000003
vt 0.164317 0.118049
vt 0.279842 0.115033
vt 0.256203 0.183913
vt 0.328635 0.000003
vt 0.966635 0.927924
vt 0.785986 0.959194
vt 0.413348 0.227916
vt 0.918238 0.140942
vt 0.987718 0.851418
vt 0.785986 0.807586
vt 0.000000 0.566687
vt 0.000000 0.252733
vt 0.164317 0.118049
vt 0.099096 0.409710
vt 0.099096 0.409710
vt 0.406582 0.311266
vt 0.577161 0.311266
vt 0.577161 0.599170
vt 0.375692 0.642944
vt 0.578367 0.325522
vt 0.749511 0.325522
vt 0.780504 0.574976
vt 0.578367 0.614380
vt 0.204009 0.518699
vt 0.375153 0.518699
vt 0.375153 0.807557
vt 0.173016 0.768153
vt 0.578367 0.000017
vt 0.748946 0.000017
vt 0.779837 0.331696
vt 0.578367 0.287921
vt 0.000000 0.792966
vt 0.183603 0.792966
vt 0.183603 0.966722
vt 0.018637 0.862584
vt 0.781043 0.381436
vt 0.964646 0.381436
vt 0.946009 0.451054
vt 0.781043 0.555193
vt 0.331202 0.000010
vt 0.501988 0.029572
vt 0.501988 0.150362
vt 0.348538 0.064768
vt 0.415238 0.853134
vt 0.586024 0.823572
vt 0.568688 0.888330
vt 0.415238 0.973923
vt 0.667347 0.597019
vt 0.861751 0.634916
vt 0.861751 0.781017
vt 0.687664 0.750883
vt 0.588254 0.809137
vt 0.791041 0.769606
vt 0.769848 0.930105
vt 0.588254 0.930105
vt 0.795873 0.546889
vt 1.000000 0.502537
vt 1.000000 0.624304
vt 0.817206 0.624304
vt 0.509161 0.684524
vt 0.664321 0.597977
vt 0.616619 0.799484
vt 0.509161 0.827803
vt 0.014830 0.563146
vt 0.169990 0.649693
vt 0.169990 0.792972
vt 0.062532 0.764654
vn -0.792075 0.029281 -0.609722
vn -0.792075 0.029281 -0.609722
vn -0.792075 0.029281 -0.609722
vn -0.792075 0.029281 -0.609722
vn -0.787723 0.033229 0.615133
vn -0.787723 0.033229 0.615133
vn -0.787723 0.033229 0.615133
vn -0.787723 0.033229 0.615133
vn 0.787723 0.033228 0.615133
vn 0.787723 0.033228 0.615133
vn 0.787723 0.033228 0.615133
vn 0.787723 0.033228 0.615133
vn 0.792075 0.029281 -0.609722
vn 0.792075 0.029281 -0.609721
vn 0.792075 0.029281 -0.609722
vn 0.792075 0.029281 -0.609722
vn -0.764861 0.232997 -0.600583
vn -0.764861 0.232997 -0.600583
vn -0.764861 0.232997 -0.600583
vn -0.764861 0.232997 -0.600583
vn -0.764861 0.232997 0.600583
vn -0.764861 0.232997 0.600583
vn -0.764861 0.232997 0.600583
vn -0.764861 0.232997 0.600583
vn 0.891466 -0.005238 0.453057
vn 0.891466 -0.005238 0.453057
vn 0.891466 -0.005238 0.453057
vn 0.891466 -0.005238 0.453057
vn 0.891466 -0.005238 -0.453057
vn 0.891466 -0.005238 -0.453057
vn 0.891466 -0.005238 -0.453057
vn 0.891466 -0.005238 -0.453057
vn 0.556792 0.744551 -0.368275
vn 0.556792 0.744551 -0.368275
vn 0.556792 0.744551 -0.368275
vn 0.556792 0.744551 0.368275
vn 0.556792 0.744551 0.368275
vn 0.556792 0.744551 0.368275
vn -0.842502 -0.088844 0.531316
vn -0.841861 -0.092330 0.531738
vn -0.808549 -0.227042 0.542864
vn -0.841861 -0.092330 -0.531738
vn -0.842502 -0.088844 -0.531316
vn -0.808549 -0.227042 -0.542864
vn 0.784867 -0.366479 -0.499677
vn 0.784867 -0.366479 -0.499677
vn 0.784867 -0.366479 -0.499677
vn 0.784867 -0.366479 -0.499677
vn 0.842660 -0.292888 0.451819
vn 0.842660 -0.292888 0.451819
vn 0.842660 -0.292888 0.451819
vn 0.842660 -0.292888 0.451819
vn -0.774165 0.355094 0.524000
vn -0.774165 0.355094 0.524000
vn -0.774165 0.355094 0.524000
vn -0.774165 0.355094 0.524000
vn -0.770542 0.492795 -0.404251
vn -0.770542 0.492795 -0.404251
vn -0.770542 0.492795 -0.404251
vn -0.770542 0.492795 -0.404251
vn 0.860094 0.293444 -0.417289
vn 0.860094 0.293444 -0.417289
vn 0.860094 0.293444 -0.417289
vn 0.860094 0.293444 -0.417289
vn 0.860094 0.293444 0.417289
vn 0.860094 0.293444 0.417289
vn 0.860094 0.293444 0.417289
vn 0.860094 0.293444 0.417289
vn -0.850056 -0.042036 0.525012
vn -0.850056 -0.042036 0.525012
vn -0.850056 -0.042036 -0.525012
vn -0.850056 -0.042036 -0.525012
vn -0.494103 0.398454 0.772721
vn 0.018183 0.590152 0.807087
vn 0.328442 0.698761 0.635498
vn 0.315942 0.635472 0.704525
vn 0.687037 0.464756 -0.558554
vn 0.449466 0.533991 -0.716124
vn 0.829523 0.377116 -0.411917
vn 0.742620 0.366005 -0.560852
vn -0.144094 0.655350 0.741453
vn -0.419656 0.478221 0.771488
vn 0.236452 0.628568 -0.740941
vn 0.096041 0.690153 -0.717262
vn 0.003751 0.719056 0.694942
vn 0.003751 0.719056 0.694942
vn 0.006732 0.720334 -0.693595
vn 0.006732 0.720334 -0.693595
vn -0.010952 0.909468 0.415629
vn -0.030153 0.904174 0.426099
vn -0.224568 0.824005 0.520177
vn -0.010952 0.909468 0.415629
vn -0.010952 0.909468 -0.415629
vn 0.089888 0.737121 -0.669756
vn 0.004450 0.889217 -0.457465
vn -0.010952 0.909468 -0.415629
vn -0.430319 0.713623 0.552782
vn -0.537557 0.684463 0.492486
vn 0.307873 0.613148 -0.727506
vn 0.165239 0.641187 -0.749384
vn -0.374453 0.459417 0.805432
vn -0.373876 0.459512 0.805646
vn -0.292130 0.471094 0.832304
vn 0.718662 0.415969 -0.557220
vn 0.723930 0.415816 -0.550474
vn 0.760437 0.413808 -0.500498
vn -0.577391 0.669996 0.466610
vn -0.577391 0.669996 0.466610
vn 0.350307 0.601890 -0.717644
vn 0.350307 0.601890 -0.717644
vn 0.140377 0.196955 -0.970311
vn 0.342509 0.788450 0.510916
vn 0.710384 0.416144 -0.567608
vn 0.710384 0.416144 -0.567608
vn -0.394111 0.456034 0.797941
vn -0.394111 0.456034 0.797941
vn 0.650406 0.715955 -0.253734
vn 0.643571 0.719370 -0.261388
vn 0.096642 0.754477 -0.649172
vn -0.306910 0.753647 0.581225
vn -0.455530 0.756284 0.469604
vn -0.643641 0.713107 0.277858
vn -0.742904 0.658956 -0.117774
vn -0.742904 0.658956 -0.117774
vn -0.619550 0.767088 0.166532
vn -0.727230 0.682892 -0.069241
vn 0.777097 0.515306 -0.361360
vn 0.777097 0.515306 -0.361360
vn 0.776179 0.537250 -0.330013
vn 0.765877 0.601072 -0.228352
s off
g pCylinder4
usemtl initialShadingGroup
f 56/74/1 57/75/2 58/76/3 59/77/4
f 60/78/5 61/79/6 62/80/7 63/81/8
f 64/82/9 65/83/10 66/84/11 67/85/12
f 68/86/13 69/87/14 70/88/15 71/89/16
f 72/90/17 73/91/18 74/92/19 75/93/20
f 76/94/21 77/95/22 78/96/23 79/97/24
f 80/98/25 81/99/26 82/100/27 83/101/28
f 84/102/29 85/103/30 86/104/31 87/105/32
f 6/1/33 5/3/34 4/4/35
f 7/2/36 6/1/37 4/4/38
s 1
f 8/47/39 7/48/40 4/49/41
s 2
f 5/50/42 8/47/43 4/49/44
s off
f 50/68/45 49/67/46 45/63/47 47/64/48
f 88/106/49 89/107/50 90/108/51 91/109/52
f 92/110/53 93/111/54 94/112/55 95/113/56
f 96/114/57 97/115/58 98/116/59 99/117/60
f 100/118/61 101/119/62 102/120/63 103/121/64
f 104/122/65 105/123/66 106/124/67 107/125/68
s 1
f 55/73/69 52/70/70 7/48/40 8/47/39
s 2
f 51/69/71 54/72/72 8/47/43 5/50/42
s 3
f 18/51/73 19/52/74 36/53/75 15/54/76
s 4
f 19/5/77 20/6/78 17/7/79 36/8/80
s 3
f 21/55/81 22/56/82 19/52/74 18/51/73
s 4
f 22/56/83 23/60/84 20/61/78 19/52/77
s 3
f 13/58/85 14/59/86 22/56/82 21/55/81
s 4
f 53/71/87 12/62/88 23/60/84 22/56/83
s 5
f 2/9/89 27/10/90 28/11/91 46/65/92
s 6
f 3/12/93 28/11/94 29/15/95 1/16/96
s 5
f 28/11/91 27/10/90 33/13/97 34/14/98
s 6
f 29/15/95 28/11/94 34/14/99 35/19/100
s 7
f 37/21/101 30/22/102 31/23/103
s 8
f 32/32/104 37/31/105 31/33/106
s 5
f 34/14/98 33/13/97 24/17/107 25/18/108
s 6
f 35/19/100 34/14/99 25/18/109 26/20/110
s 4
f 36/26/80 17/27/79 16/28/111
s 3
f 15/54/76 36/53/75 16/57/112
s 8
f 26/29/113 25/30/114 37/31/105 32/32/104
s 7
f 25/24/115 24/25/116 30/22/102 37/21/101
s 9
f 41/45/117 39/44/118 38/46/119
s 10
f 40/34/120 41/35/121 38/36/122
f 11/39/123 9/40/124 43/38/125 44/37/126
s 9
f 48/66/127 10/41/128 42/42/129 43/43/130
f 43/43/130 42/42/129 39/44/118 41/45/117
s 10
f 40/34/120 44/37/126 43/38/125 41/35/121
