# This file uses centimeters as units for non-parametric coordinates.

mtllib lava rock v1.mtl
g default
v -0.354774 0.135007 0.372396
v -0.100991 0.143477 0.480536
v 0.133375 0.143657 0.566383
v 0.311102 0.135007 0.642516
v 0.476346 0.135007 0.716150
v -0.429024 0.143244 0.142857
v -0.087839 0.164268 0.239710
v 0.105488 0.202947 0.282814
v 0.299489 0.159609 0.383520
v 0.557062 0.075671 0.410942
v -0.532084 0.212258 0.004591
v -0.136255 0.115641 0.052460
v 0.060766 0.138438 0.094638
v 0.245421 0.164609 0.152838
v 0.600699 0.135007 0.101062
v -0.578675 0.136249 -0.191006
v -0.194102 0.117763 -0.113865
v 0.028670 0.083143 -0.074273
v 0.218541 0.110288 -0.059346
v 0.502597 0.135007 -0.063457
v -0.518202 0.135007 -0.507456
v -0.225082 0.135007 -0.505056
v 0.054794 0.135007 -0.526985
v 0.199301 0.135007 -0.419437
v 0.394863 0.210464 -0.323649
v -0.421914 -0.035462 0.410037
v -0.134821 -0.035462 0.538352
v -0.501792 -0.028551 0.129868
v 0.117981 -0.035118 0.615790
v 0.297940 -0.035462 0.724093
v 0.516132 -0.035462 0.776961
v 0.617045 -0.054001 0.431244
v -0.621689 -0.018742 -0.014301
v 0.691297 -0.035462 0.072385
v -0.651129 -0.035462 -0.240868
v 0.584165 -0.035462 -0.094243
v -0.580084 -0.035462 -0.594025
v 0.448156 -0.019221 -0.398535
v -0.265664 -0.035462 -0.593316
v 0.060799 -0.035462 -0.642964
v 0.224727 -0.035462 -0.516205
vt 0.896134 0.296518
vt 0.902149 0.399868
vt 0.776725 0.405717
vt 0.771679 0.279570
vt 0.952534 0.462123
vt 0.783886 0.470629
vt 0.897042 0.550191
vt 0.771679 0.572641
vt 0.896134 0.692673
vt 0.771679 0.731651
vt 0.728226 0.493916
vt 0.771616 0.631680
vt 0.646959 0.659129
vt 0.633401 0.503080
vt 0.771616 0.354043
vt 0.646959 0.341099
vt 0.771616 0.279783
vt 0.646959 0.265887
vt 0.826796 0.162338
vt 0.658835 0.128536
vt 0.122621 0.188259
vt 0.261606 0.129035
vt 0.268809 0.260925
vt 0.081957 0.313967
vt 0.389958 0.082021
vt 0.374685 0.237319
vt 0.242294 0.363473
vt 0.025516 0.389689
vt 0.487291 0.040326
vt 0.480931 0.182166
vt 0.350193 0.340374
vt 0.210613 0.454562
vt 0.000000 0.496808
vt 0.577787 0.000000
vt 0.621992 0.167149
vt 0.451321 0.308501
vt 0.332616 0.432879
vt 0.193647 0.668800
vt 0.033119 0.670114
vt 0.645890 0.336856
vt 0.436599 0.424704
vt 0.346922 0.680809
vt 0.592164 0.426956
vt 0.426063 0.621910
vt 0.350211 0.744325
vt 0.171422 0.717135
vt 0.533163 0.569451
vt 0.643268 0.856078
vt 0.637100 0.969890
vt 0.512966 1.000000
vt 0.512966 0.871249
vt 0.643399 0.750974
vt 0.513216 0.757877
vt 0.637100 0.671270
vt 0.512966 0.677173
vt 0.637100 0.597165
vt 0.512966 0.579322
vt 0.000000 0.129593
vt 0.000000 0.000012
vt 0.122986 0.017952
vt 0.122986 0.156950
vt 0.868827 0.720223
vt 0.950806 0.642614
vt 0.997141 0.816665
vt 0.896770 0.850754
vt 0.802903 0.734078
vt 0.821987 0.866472
vn -0.441414 0.785355 0.434018
vn -0.252516 0.797891 0.547361
vn -0.064358 0.997909 0.005988
vn -0.412767 0.872681 0.260866
vn -0.190495 0.811836 0.551937
vn -0.020963 0.999779 -0.001439
vn -0.054350 0.901302 0.429768
vn 0.152648 0.986101 0.065601
vn 0.442602 0.787428 0.429023
vn 0.595171 0.790583 0.144051
vn 0.086743 0.986210 -0.140943
vn -0.292245 0.954705 0.055953
vn -0.029357 0.971968 -0.233273
vn 0.084438 0.994106 -0.067991
vn 0.510494 0.859408 -0.028530
vn 0.086142 0.995303 -0.044170
vn -0.403318 0.913010 -0.061222
vn -0.006485 0.999978 -0.001497
vn -0.124898 0.992117 0.010212
vn 0.392167 0.897877 -0.200057
vn 0.011717 0.954854 -0.296844
vn -0.302207 0.895166 -0.327640
vn 0.091020 0.931411 -0.352405
vn 0.075531 0.955378 -0.285567
vn 0.299146 0.925767 -0.231228
vn -0.682237 0.392466 0.616866
vn -0.345768 0.330054 0.878356
vn -0.821276 0.317061 0.474319
vn -0.356862 0.328817 0.874373
vn -0.355346 0.349424 0.866967
vn 0.604296 0.479477 0.636339
vn 0.893983 0.396824 0.208148
vn -0.886641 0.326017 0.327995
vn 0.878045 0.473113 -0.072125
vn -0.910263 0.403594 -0.092371
vn 0.830783 0.411420 -0.374877
vn -0.555274 0.533044 -0.638384
vn 0.673475 0.431030 -0.600536
vn -0.043456 0.485287 -0.873275
vn 0.123674 0.532633 -0.837261
vn 0.431199 0.457302 -0.777781
s 1
g pPlane1
usemtl initialShadingGroup
f 1/21/1 2/22/2 7/23/3 6/24/4
f 2/22/2 3/25/5 8/26/6 7/23/3
f 3/25/5 4/29/7 9/30/8 8/26/6
f 4/29/7 5/34/9 10/35/10 9/30/8
f 6/24/4 7/23/3 12/27/11 11/28/12
f 7/23/3 8/26/6 13/31/13 12/27/11
f 8/26/6 9/30/8 14/36/14 13/31/13
f 9/30/8 10/35/10 15/40/15 14/36/14
f 11/28/12 12/27/11 17/32/16 16/33/17
f 12/27/11 13/31/13 18/37/18 17/32/16
f 13/31/13 14/36/14 19/41/19 18/37/18
f 14/36/14 15/40/15 20/43/20 19/41/19
f 16/33/17 17/32/16 22/38/21 21/39/22
f 17/32/16 18/37/18 23/42/23 22/38/21
f 18/37/18 19/41/19 24/44/24 23/42/23
f 19/41/19 20/43/20 25/47/25 24/44/24
f 2/48/2 1/49/1 26/50/26 27/51/27
f 1/1/1 6/2/4 28/3/28 26/4/26
f 3/52/5 2/48/2 27/51/27 29/53/29
f 4/54/7 3/52/5 29/53/29 30/55/30
f 5/56/9 4/54/7 30/55/30 31/57/31
f 10/11/10 5/12/9 31/13/31 32/14/32
f 6/2/4 11/5/12 33/6/33 28/3/28
f 15/15/15 10/11/10 32/14/32 34/16/34
f 11/5/12 16/7/17 35/8/35 33/6/33
f 20/17/20 15/15/15 34/16/34 36/18/36
f 16/7/17 21/9/22 37/10/37 35/8/35
f 25/19/25 20/17/20 36/18/36 38/20/38
f 21/58/22 22/59/21 39/60/39 37/61/37
f 22/38/21 23/42/23 40/45/40 39/46/39
f 23/66/23 24/62/24 41/65/41 40/67/40
f 24/62/24 25/63/25 38/64/38 41/65/41
