# This file uses centimeters as units for non-parametric coordinates.

mtllib stone v3.mtl
g default
v 0.238628 -0.008909 -0.634013
v -0.252123 -0.008909 -0.634013
v -0.497499 0.028508 0.023063
v -0.252124 0.010400 0.584074
v 0.238628 0.010400 0.584074
v 0.484003 0.028508 0.023063
v 0.220949 0.055926 -0.715785
v -0.234444 0.055926 -0.715785
v -0.496271 0.265267 0.058812
v -0.290083 0.170809 0.802067
v 0.276587 0.170809 0.802067
v 0.482775 0.265267 0.058812
v 0.276017 0.291394 -0.610372
v -0.289512 0.291394 -0.610372
v -0.420531 0.437348 0.197947
v -0.284297 0.330364 0.985689
v 0.270801 0.330364 0.985689
v 0.407036 0.437348 0.197947
v 0.211780 0.527213 -0.075074
v -0.225276 0.527213 -0.075074
v -0.311304 0.557037 0.582082
v -0.189479 0.511513 1.021804
v 0.175983 0.511513 1.021804
v 0.297809 0.557037 0.582082
v -0.193796 0.605103 0.678346
v 0.180300 0.605103 0.678346
v -0.006748 -0.008909 -0.726937
v -0.006748 0.055926 -0.842962
v -0.006748 0.291394 -0.703296
v -0.006748 0.527213 -0.075074
v -0.006748 0.605103 0.678346
v -0.006748 0.501842 1.111358
v -0.006748 0.426982 1.221724
v -0.006748 0.201708 0.998990
v -0.006748 0.010400 0.778003
v -0.374811 0.009799 -0.351937
v -0.464107 0.160596 -0.392075
v -0.372496 0.415833 -0.252675
v -0.308846 0.542125 0.253504
v 0.361316 0.009799 -0.351937
v 0.385899 0.160596 -0.392075
v 0.359000 0.415833 -0.252675
v 0.295351 0.542125 0.253504
v -0.374811 0.019454 0.334760
v -0.431751 0.218038 0.490214
v -0.369888 0.400944 0.626599
v -0.290948 0.551363 0.780947
v 0.361316 0.019454 0.334760
v 0.418255 0.218038 0.490214
v 0.356392 0.400944 0.626599
v 0.277452 0.551363 0.780947
vt 0.308002 0.570691
vt 0.319658 0.483945
vt 0.413612 0.496289
vt 0.348397 0.595838
vt 0.331314 0.368622
vt 0.478827 0.357628
vt 0.572637 0.453419
vt 0.495105 0.563421
vt 0.325673 0.272766
vt 0.449401 0.224960
vt 0.586043 0.314840
vt 0.320032 0.196095
vt 0.419975 0.129056
vt 0.563361 0.183018
vt 0.651324 0.297755
vt 0.660615 0.196708
vt 0.519386 0.072588
vt 0.657079 0.135551
vt 0.632251 0.061481
vt 0.579584 0.000000
vt 0.626225 0.033941
vt 0.674740 0.224450
vt 0.663227 0.110542
vt 0.756028 0.098350
vt 0.820443 0.235309
vt 0.651713 0.024860
vt 0.691613 0.000022
vt 0.913102 0.140694
vt 0.926343 0.277572
vt 0.791378 0.366349
vt 0.669168 0.319129
vt 0.836521 0.032041
vt 0.990823 0.294448
vt 1.000000 0.394255
vt 0.903939 0.407777
vt 0.663597 0.394860
vt 0.762313 0.461076
vt 0.996508 0.454661
vt 0.860504 0.516852
vt 0.971984 0.527822
vt 0.966032 0.555025
vt 0.919963 0.588549
vt 0.269209 0.714738
vt 0.151828 0.753312
vt 0.151828 0.492526
vt 0.242544 0.492526
vt 0.034448 0.714738
vt 0.061114 0.492526
vt 0.229476 0.179768
vt 0.151828 0.179768
vt 0.277235 0.356127
vt 0.303657 0.566251
vt 0.000000 0.566251
vt 0.026422 0.356127
vt 0.074181 0.179768
vt 0.278256 0.219728
vt 0.227684 0.037192
vt 0.151828 0.000016
vt 0.025401 0.219728
vt 0.075974 0.037192
vt 0.269805 0.137176
vt 0.033852 0.137176
vt 0.979304 0.744499
vt 0.904859 0.744499
vt 0.904859 0.588526
vt 0.997309 0.588526
vt 0.985084 0.787446
vt 0.904859 0.787446
vt 0.830414 0.744499
vt 0.812410 0.588526
vt 0.824634 0.787446
vt 0.676208 0.678673
vt 0.676208 0.572530
vt 0.794065 0.479384
vt 0.812298 0.584089
vt 0.558351 0.479384
vt 0.540119 0.584089
vt 0.676208 0.785655
vt 0.809518 0.672284
vt 0.542898 0.672284
vn 0.795150 -0.406726 -0.449790
vn 0.000000 -0.825381 -0.564576
vn 0.000000 0.122293 -0.992494
vn 0.642775 0.027406 -0.765565
vn -0.704300 -0.568752 -0.424832
vn -0.920182 -0.316447 -0.230494
vn -0.942991 0.082175 -0.322515
vn -0.624866 0.030590 -0.780133
vn -0.974259 -0.223966 0.025675
vn -0.911664 -0.322087 0.255204
vn -0.960996 -0.120220 0.249068
vn -0.990708 0.135874 -0.005938
vn -0.000000 -0.749504 0.662000
vn 0.000000 -0.796997 0.603983
vn 0.648269 -0.633583 0.422279
vn 0.676931 -0.537141 0.503234
vn 0.911664 -0.322087 0.255204
vn 0.960995 -0.120220 0.249068
vn 0.989811 -0.139464 -0.028695
vn 0.951013 -0.114636 -0.287111
vn 0.947659 0.070014 -0.311514
vn 0.992130 0.116876 -0.044931
vn 0.000000 0.796932 -0.604069
vn 0.466839 0.709706 -0.527616
vn -0.702455 0.662610 -0.259819
vn -0.430985 0.723068 -0.539838
vn -0.957417 0.174014 0.230373
vn -0.872480 0.488486 0.012625
vn -0.000000 -0.361454 0.932390
vn 0.734317 -0.286065 0.615585
vn 0.957417 0.174014 0.230373
vn 0.734883 0.622736 -0.268602
vn 0.881572 0.472045 0.002349
vn 0.000000 0.970234 -0.242168
vn 0.129780 0.958910 -0.252287
vn -0.462408 0.881539 -0.095226
vn -0.129780 0.958910 -0.252287
vn -0.788051 0.549694 0.277151
vn -0.648988 0.759706 0.040758
vn 0.000000 0.833454 0.552589
vn 0.466382 0.766887 0.440876
vn 0.788051 0.549694 0.277152
vn 0.462408 0.881539 -0.095226
vn 0.648988 0.759706 0.040758
vn -0.466382 0.766887 0.440876
vn -0.077579 0.996721 0.022994
vn 0.077579 0.996721 0.022994
vn 0.000000 0.999943 0.010657
vn -0.734317 -0.286065 0.615585
vn -0.676931 -0.537141 0.503234
vn -0.648269 -0.633583 0.422279
s 1
g pSphere4
usemtl initialShadingGroup
f 1/67/1 27/68/2 28/64/3 7/63/4
f 2/1/5 36/2/6 37/3/7 8/4/8
f 3/5/9 44/9/10 45/10/11 9/6/12
f 34/72/13 35/73/14 5/74/15 11/75/16
f 5/36/15 48/31/17 49/30/18 11/37/16
f 6/22/19 40/23/20 41/24/21 12/25/22
f 7/63/4 28/64/3 29/65/23 13/66/24
f 8/4/8 37/3/7 38/7/25 14/8/26
f 9/6/12 45/10/11 46/14/27 15/11/28
f 33/78/29 34/72/13 11/75/16 17/79/30
f 11/37/16 49/30/18 50/35/31 17/39/30
f 12/25/22 41/24/21 42/28/32 18/29/33
f 13/43/24 29/44/23 30/45/34 19/46/35
f 14/47/26 38/53/25 39/54/36 20/48/37
f 15/11/28 46/14/27 47/18/38 21/16/39
f 32/41/40 33/42/29 17/39/30 23/40/41
f 17/39/30 50/35/31 51/38/42 23/40/41
f 18/29/33 42/28/32 43/33/43 24/34/44
f 22/60/45 25/55/46 21/59/39 47/62/38
f 25/55/46 20/48/37 39/54/36 21/59/39
f 24/56/44 26/49/47 23/57/41 51/61/42
f 24/56/44 43/51/43 19/46/35 26/49/47
f 26/49/47 19/46/35 30/45/34 31/50/48
f 23/57/41 26/49/47 31/50/48 32/58/40
f 28/64/3 27/68/2 2/71/5 8/69/8
f 29/65/23 28/64/3 8/69/8 14/70/26
f 30/45/34 29/44/23 14/47/26 20/48/37
f 31/50/48 30/45/34 20/48/37 25/55/46
f 32/58/40 31/50/48 25/55/46 22/60/45
f 16/17/49 33/20/29 32/21/40 22/19/45
f 10/77/50 34/72/13 33/78/29 16/80/49
f 4/76/51 35/73/14 34/72/13 10/77/50
f 37/3/7 36/2/6 3/5/9 9/6/12
f 38/7/25 37/3/7 9/6/12 15/11/28
f 39/15/36 38/7/25 15/11/28 21/16/39
f 41/24/21 40/23/20 1/26/1 7/27/4
f 42/28/32 41/24/21 7/27/4 13/32/24
f 43/51/43 42/52/32 13/43/24 19/46/35
f 45/10/11 44/9/10 4/12/51 10/13/50
f 46/14/27 45/10/11 10/13/50 16/17/49
f 47/18/38 46/14/27 16/17/49 22/19/45
f 49/30/18 48/31/17 6/22/19 12/25/22
f 50/35/31 49/30/18 12/25/22 18/29/33
f 51/38/42 50/35/31 18/29/33 24/34/44
