# This file uses centimeters as units for non-parametric coordinates.

mtllib grass.mtl
g default
v -0.528111 0.021499 -0.208953
v -0.528111 1.021499 -0.208953
v 0.471859 0.021499 -0.216671
v 0.471859 1.021499 -0.216671
v 0.415277 0.021499 -0.244952
v 0.415277 1.021499 -0.244952
v -0.029825 0.021499 0.650528
v -0.029825 1.021499 0.650528
v 0.013581 0.015871 0.602389
v 0.037540 1.015584 0.601245
v -0.508787 0.027415 -0.250253
v -0.484828 1.027127 -0.251397
vt 0.902913 0.520000
vt 0.902913 1.000000
vt 0.422968 1.000000
vt 0.422968 0.520000
vt 0.903175 0.000000
vt 0.903175 0.503858
vt 0.445955 0.503858
vt 0.445955 0.000000
vt 0.443862 0.000000
vt 0.443268 0.519726
vt 0.000000 0.525727
vt 0.000595 0.006001
vn -0.007718 0.000000 -0.999970
vn -0.007718 0.000000 -0.999970
vn -0.007718 0.000000 -0.999970
vn -0.007718 0.000000 -0.999970
vn 0.895480 0.000000 0.445102
vn 0.895480 0.000000 0.445102
vn 0.895480 0.000000 0.445102
vn 0.895480 0.000000 0.445102
vn -0.852384 0.021026 0.522494
vn -0.852384 0.021026 0.522494
vn -0.852384 0.021026 0.522494
vn -0.852384 0.021026 0.522494
s off
g polySurface3
usemtl initialShadingGroup
f 1/1/1 2/2/2 4/3/3 3/4/4
f 5/5/5 6/6/6 8/7/7 7/8/8
f 9/9/9 10/10/10 12/11/11 11/12/12
