# This file uses centimeters as units for non-parametric coordinates.

mtllib coine.mtl
g default
v 0.105747 1.037248 -0.228148
v 0.105747 0.892314 -0.409889
v 0.105747 0.682879 -0.510748
v 0.105747 0.450424 -0.510748
v 0.105747 0.240989 -0.409890
v 0.105747 0.096055 -0.228149
v 0.105747 0.044329 -0.001521
v 0.105747 0.096055 0.225106
v 0.105747 0.240988 0.406847
v 0.105747 0.450424 0.507706
v 0.105747 0.682879 0.507706
v 0.105747 0.892314 0.406847
v 0.105747 1.037248 0.225106
v 0.105747 1.088974 -0.001521
v -0.105747 1.037248 -0.228148
v -0.105747 0.892314 -0.409889
v -0.105747 0.682879 -0.510748
v -0.105747 0.450424 -0.510748
v -0.105747 0.240989 -0.409890
v -0.105747 0.096055 -0.228149
v -0.105747 0.044329 -0.001521
v -0.105747 0.096055 0.225106
v -0.105747 0.240988 0.406847
v -0.105747 0.450424 0.507706
v -0.105747 0.682879 0.507706
v -0.105747 0.892314 0.406847
v -0.105747 1.037248 0.225106
v -0.105747 1.088974 -0.001521
v 0.105747 0.828362 0.326654
v 0.105747 0.944834 0.180602
v 0.105747 0.660055 0.407706
v 0.105747 0.473248 0.407706
v 0.105747 0.304941 0.326653
v 0.105747 0.188469 0.180602
v 0.105747 0.146900 -0.001521
v 0.105747 0.188469 -0.183644
v 0.105747 0.304941 -0.329696
v 0.105747 0.473248 -0.410748
v 0.105747 0.660055 -0.410748
v 0.105747 0.828362 -0.329696
v 0.105747 0.944834 -0.183644
v 0.105747 0.986403 -0.001521
v -0.105747 0.986403 -0.001521
v -0.105747 0.944834 -0.183644
v -0.105747 0.828362 -0.329696
v -0.105747 0.660055 -0.410748
v -0.105747 0.473248 -0.410748
v -0.105747 0.304941 -0.329696
v -0.105747 0.188469 -0.183644
v -0.105747 0.146900 -0.001521
v -0.105747 0.188469 0.180602
v -0.105747 0.304941 0.326653
v -0.105747 0.473248 0.407706
v -0.105747 0.660055 0.407706
v -0.105747 0.828362 0.326654
v -0.105747 0.944834 0.180602
v 0.052628 0.828362 0.326654
v 0.052628 0.944834 0.180602
v 0.052628 0.660055 0.407706
v 0.052628 0.473248 0.407706
v 0.052628 0.304941 0.326653
v 0.052628 0.188469 0.180602
v 0.052628 0.146900 -0.001521
v 0.052628 0.188469 -0.183644
v 0.052628 0.304941 -0.329696
v 0.052628 0.473248 -0.410748
v 0.052628 0.660055 -0.410748
v 0.052628 0.828362 -0.329696
v 0.052628 0.944834 -0.183644
v 0.052628 0.986403 -0.001521
v -0.052628 0.986403 -0.001521
v -0.052628 0.944834 -0.183644
v -0.052628 0.828362 -0.329696
v -0.052628 0.660055 -0.410748
v -0.052628 0.473248 -0.410748
v -0.052628 0.304941 -0.329696
v -0.052628 0.188469 -0.183644
v -0.052628 0.146900 -0.001521
v -0.052628 0.188469 0.180602
v -0.052628 0.304941 0.326653
v -0.052628 0.473248 0.407706
v -0.052628 0.660055 0.407706
v -0.052628 0.828362 0.326654
v -0.052628 0.944834 0.180602
v -0.052628 0.660055 0.180602
v -0.052628 0.473248 0.180602
v -0.052628 0.660055 -0.183644
v -0.052628 0.473248 -0.183644
v 0.052628 0.660055 0.180602
v 0.052628 0.473248 0.180602
v 0.052628 0.660055 -0.183644
v 0.052628 0.473248 -0.183644
v 0.052628 0.828362 0.180602
v 0.052628 0.828362 -0.183644
v 0.052628 0.304941 0.180602
v 0.052628 0.304941 -0.183644
v -0.052628 0.828362 -0.183644
v -0.052628 0.828362 0.180602
v -0.052628 0.304941 -0.183644
v -0.052628 0.304941 0.180602
v -0.052628 0.744208 -0.183644
v -0.052628 0.744209 -0.001521
v -0.052628 0.744208 0.180602
v -0.052628 0.389094 -0.183644
v -0.052628 0.389094 -0.001521
v -0.052628 0.389094 0.180602
v 0.052628 0.744208 0.180602
v 0.052628 0.744209 -0.001521
v 0.052628 0.744208 -0.183644
v 0.052628 0.389094 0.180602
v 0.052628 0.389094 -0.001521
v 0.052628 0.389094 -0.183644
vt 0.000000 0.741438
vt 0.000000 0.631204
vt 0.102873 0.631204
vt 0.102873 0.741438
vt 0.000000 0.520971
vt 0.102873 0.520971
vt 0.000000 0.829838
vt 0.102873 0.829838
vt 0.000000 0.432571
vt 0.102873 0.432571
vt 0.103618 0.779416
vt 0.103618 0.669182
vt 0.206491 0.669182
vt 0.206491 0.779416
vt 0.103618 0.558949
vt 0.206491 0.558949
vt 0.103618 0.867816
vt 0.206491 0.867816
vt 0.103618 0.470548
vt 0.206491 0.470548
vt 0.958468 0.248216
vt 0.958468 0.159630
vt 0.984306 0.159630
vt 0.984306 0.248216
vt 0.958468 0.071044
vt 0.984306 0.071044
vt 0.958468 0.319257
vt 0.984306 0.319257
vt 0.958468 0.000003
vt 0.984306 0.000003
vt 0.621709 0.312473
vt 0.621709 0.223887
vt 0.647547 0.223887
vt 0.647547 0.312473
vt 0.621709 0.135300
vt 0.647547 0.135300
vt 0.621709 0.383513
vt 0.647547 0.383513
vt 0.621709 0.064260
vt 0.647547 0.064260
vt 0.181265 0.223887
vt 0.181265 0.312473
vt 0.155427 0.312473
vt 0.155427 0.223887
vt 0.181265 0.383514
vt 0.155427 0.383514
vt 0.181265 0.135301
vt 0.155427 0.135301
vt 0.181265 0.064260
vt 0.155427 0.064260
vt 0.958402 0.071044
vt 0.958402 0.159630
vt 0.932564 0.159630
vt 0.932564 0.071044
vt 0.958402 0.248216
vt 0.932564 0.248216
vt 0.958402 0.000003
vt 0.932564 0.000003
vt 0.958402 0.319257
vt 0.932564 0.319257
vt 0.799216 0.082961
vt 0.799216 0.165986
vt 0.751232 0.165986
vt 0.751232 0.082961
vt 0.799216 0.249010
vt 0.751232 0.249010
vt 0.332934 0.082961
vt 0.332934 0.165986
vt 0.284950 0.165986
vt 0.284950 0.082961
vt 0.332934 0.249010
vt 0.284950 0.249010
vt 0.383299 0.420281
vt 0.383299 0.473377
vt 0.316719 0.473377
vt 0.466324 0.401331
vt 0.466324 0.511740
vt 0.383299 0.511740
vt 0.383299 0.550104
vt 0.279769 0.550103
vt 0.549349 0.420281
vt 0.549349 0.473377
vt 0.549349 0.511740
vt 0.383299 0.635263
vt 0.279769 0.635263
vt 0.615929 0.473377
vt 0.652879 0.550104
vt 0.549349 0.550104
vt 0.383299 0.673626
vt 0.383299 0.711990
vt 0.316719 0.711990
vt 0.549349 0.635263
vt 0.652879 0.635263
vt 0.466324 0.673626
vt 0.466324 0.784036
vt 0.383299 0.765086
vt 0.615929 0.711990
vt 0.549349 0.711990
vt 0.549349 0.673626
vt 0.549349 0.765086
vt 0.730420 0.570165
vt 0.730420 0.623261
vt 0.663840 0.623261
vt 0.813445 0.551215
vt 0.813445 0.661624
vt 0.730420 0.661625
vt 0.730420 0.699988
vt 0.626890 0.699988
vt 0.896470 0.570165
vt 0.896470 0.623261
vt 0.896470 0.661625
vt 0.730420 0.785148
vt 0.626890 0.785148
vt 0.963050 0.623261
vt 0.896470 0.699988
vt 1.000000 0.699988
vt 0.730420 0.823511
vt 0.730420 0.861874
vt 0.663840 0.861874
vt 0.896470 0.785148
vt 1.000000 0.785148
vt 0.813445 0.823511
vt 0.813445 0.933920
vt 0.730420 0.914970
vt 0.963051 0.861874
vt 0.896470 0.861874
vt 0.896470 0.823511
vt 0.896470 0.914970
vt 0.801737 0.023581
vt 0.884587 0.089652
vt 0.848029 0.118805
vt 0.781449 0.065709
vt 0.930566 0.185127
vt 0.884979 0.195532
vt 0.698424 0.000000
vt 0.698424 0.046759
vt 0.930566 0.291097
vt 0.884979 0.280692
vt 0.595111 0.023580
vt 0.615399 0.065709
vt 0.884587 0.386572
vt 0.848029 0.357418
vt 0.512261 0.089652
vt 0.548819 0.118805
vt 0.801737 0.452643
vt 0.781449 0.410514
vt 0.466282 0.185127
vt 0.511869 0.195532
vt 0.698424 0.476224
vt 0.698424 0.429464
vt 0.466282 0.291097
vt 0.511869 0.280692
vt 0.595111 0.452643
vt 0.615399 0.410514
vt 0.512260 0.386572
vt 0.548818 0.357418
vt 0.232142 0.000000
vt 0.335455 0.023580
vt 0.315167 0.065709
vt 0.232142 0.046759
vt 0.418305 0.089652
vt 0.381747 0.118805
vt 0.128829 0.023581
vt 0.149117 0.065709
vt 0.464284 0.185127
vt 0.418697 0.195532
vt 0.045979 0.089652
vt 0.082537 0.118805
vt 0.464284 0.291097
vt 0.418697 0.280692
vt 0.000000 0.185127
vt 0.045587 0.195532
vt 0.418305 0.386572
vt 0.381747 0.357418
vt 0.000000 0.291097
vt 0.045587 0.280692
vt 0.335455 0.452643
vt 0.315167 0.410514
vt 0.045979 0.386572
vt 0.082537 0.357418
vt 0.232142 0.476224
vt 0.232142 0.429464
vt 0.128829 0.452643
vt 0.149117 0.410514
vt 0.747378 0.058822
vt 0.747378 0.157614
vt 0.647614 0.157614
vt 0.647614 0.058822
vt 0.747378 0.267265
vt 0.647614 0.267265
vt 0.747378 0.366058
vt 0.647614 0.366058
vt 0.181332 0.366057
vt 0.181332 0.267265
vt 0.281096 0.267265
vt 0.281096 0.366057
vt 0.181332 0.157614
vt 0.281096 0.157614
vt 0.181332 0.058822
vt 0.281096 0.058822
vt 0.942078 0.319257
vt 0.942078 0.398649
vt 0.917021 0.398649
vt 0.917021 0.319257
vt 0.942078 0.486767
vt 0.917021 0.486767
vt 0.942078 0.566159
vt 0.917021 0.566159
vt 0.803041 0.350521
vt 0.803041 0.271130
vt 0.828098 0.271130
vt 0.828098 0.350521
vt 0.803041 0.183011
vt 0.828098 0.183011
vt 0.803041 0.103619
vt 0.828098 0.103619
vt 0.361816 0.103619
vt 0.361816 0.183011
vt 0.336759 0.183011
vt 0.336759 0.103619
vt 0.361816 0.271130
vt 0.336759 0.271130
vt 0.361816 0.350521
vt 0.336759 0.350521
vt 0.942926 0.566159
vt 0.942926 0.486767
vt 0.967983 0.486767
vt 0.967983 0.566159
vt 0.942926 0.398649
vt 0.967983 0.398649
vt 0.942926 0.319257
vt 0.967983 0.319257
vt 0.151602 0.101961
vt 0.151602 0.140324
vt 0.103618 0.140324
vt 0.103618 0.101961
vt 0.151602 0.225484
vt 0.103618 0.225484
vt 0.151602 0.263847
vt 0.103618 0.263847
vt 0.569900 0.263847
vt 0.569900 0.225484
vt 0.617884 0.225484
vt 0.617884 0.263847
vt 0.569900 0.140324
vt 0.617884 0.140324
vt 0.569900 0.101961
vt 0.617884 0.101961
vn 0.351027 0.843636 -0.406274
vn 0.351028 0.583814 -0.732080
vn -0.351028 0.583814 -0.732080
vn -0.351027 0.843636 -0.406274
vn 0.351028 0.208361 -0.912888
vn -0.351028 0.208361 -0.912888
vn 0.351028 -0.208360 -0.912889
vn -0.351028 -0.208360 -0.912889
vn 0.351028 -0.583814 -0.732080
vn -0.351028 -0.583814 -0.732080
vn 0.351028 -0.843636 -0.406273
vn -0.351028 -0.843636 -0.406273
vn 0.351028 -0.936365 -0.000000
vn -0.351028 -0.936365 -0.000000
vn 0.351028 -0.843636 0.406273
vn -0.351028 -0.843636 0.406273
vn 0.351028 -0.583814 0.732080
vn -0.351028 -0.583814 0.732080
vn 0.351028 -0.208361 0.912888
vn -0.351028 -0.208361 0.912888
vn 0.351028 0.208360 0.912888
vn -0.351028 0.208360 0.912888
vn 0.351028 0.583814 0.732080
vn -0.351028 0.583814 0.732080
vn 0.351028 0.843636 0.406274
vn -0.351028 0.843636 0.406274
vn 0.351028 0.936365 0.000000
vn -0.351028 0.936365 0.000000
vn 0.934848 -0.319887 0.154050
vn 1.000000 0.000000 0.000000
vn 0.915470 -0.250884 0.314598
vn -0.934848 -0.319887 -0.154050
vn -1.000000 0.000000 0.000000
vn -0.915470 -0.250884 -0.314598
vn 0.927256 -0.233452 -0.292739
vn 0.927256 -0.337348 -0.162458
vn 0.927256 -0.083318 -0.365040
vn 0.927256 0.083318 -0.365040
vn 0.927256 0.233452 -0.292739
vn 0.927256 0.337348 -0.162458
vn 0.927256 0.374427 0.000000
vn 0.927256 0.337347 0.162458
vn 0.927256 0.233452 0.292739
vn 0.927256 0.083318 0.365040
vn 0.927256 -0.083318 0.365040
vn 0.927256 -0.233452 0.292740
vn 0.927256 -0.337348 0.162458
vn 0.927256 -0.374428 -0.000000
vn -0.927256 -0.337348 0.162458
vn -0.927256 -0.374428 -0.000000
vn -0.927256 -0.233452 0.292740
vn -0.927256 -0.083318 0.365040
vn -0.927256 0.083318 0.365040
vn -0.927256 0.233452 0.292739
vn -0.927256 0.337347 0.162458
vn -0.927256 0.374427 0.000000
vn -0.927256 0.337348 -0.162458
vn -0.927256 0.233452 -0.292739
vn -0.927256 0.083318 -0.365040
vn -0.927256 -0.083318 -0.365040
vn -0.927256 -0.233452 -0.292739
vn -0.927256 -0.337348 -0.162458
vn 0.915470 -0.250884 -0.314598
vn 0.934848 -0.319887 -0.154050
vn 0.958264 -0.063615 -0.278716
vn 0.958264 0.063615 -0.278716
vn 0.915470 0.250884 -0.314598
vn 0.934848 0.319888 -0.154050
vn 0.962989 0.269539 0.000000
vn 0.934848 0.319888 0.154050
vn 0.915470 0.250884 0.314598
vn 0.958264 0.063615 0.278716
vn 0.958264 -0.063615 0.278716
vn 0.962989 -0.269539 -0.000000
vn -0.934848 -0.319887 0.154050
vn -0.962989 -0.269539 -0.000000
vn -0.915470 -0.250884 0.314598
vn -0.958264 -0.063615 0.278716
vn -0.958264 0.063615 0.278716
vn -0.915470 0.250884 0.314598
vn -0.934848 0.319888 0.154050
vn -0.962990 0.269539 0.000000
vn -0.934848 0.319888 -0.154050
vn -0.915470 0.250884 -0.314598
vn -0.958264 0.063615 -0.278716
vn -0.958264 -0.063615 -0.278716
vn -1.000000 0.000000 -0.000000
vn -0.979673 -0.182103 0.084145
vn -0.903140 -0.429346 0.000000
vn -0.932814 0.000000 -0.360359
vn -0.932814 0.000000 -0.360359
vn -0.979673 0.182103 -0.084144
vn -1.000000 0.000000 0.000000
vn -0.979673 -0.182103 -0.084145
vn -0.932814 -0.000000 0.360359
vn -0.932814 -0.000000 0.360359
vn -1.000000 0.000000 -0.000000
vn -0.979673 0.182103 0.084144
vn 1.000000 0.000000 0.000000
vn 0.979673 -0.182103 -0.084145
vn 0.903140 -0.429346 0.000000
vn 0.932814 -0.000000 0.360359
vn 0.979673 0.182103 0.084144
vn 1.000000 0.000000 0.000000
vn 0.932814 -0.000000 0.360359
vn 0.932814 0.000000 -0.360359
vn 0.932814 0.000000 -0.360359
vn 1.000000 0.000000 0.000000
vn 0.979673 0.182103 -0.084144
vn 0.979673 -0.182103 0.084145
vn -0.903140 0.429347 0.000000
vn 0.903140 0.429347 0.000000
s 1
g pCylinder6
usemtl initialShadingGroup
f 1/15/1 2/19/2 16/20/3 15/16/4
f 2/185/2 3/186/5 17/187/6 16/188/3
f 3/186/5 4/189/7 18/190/8 17/187/6
f 4/189/7 5/191/9 19/192/10 18/190/8
f 5/7/9 6/1/11 20/4/12 19/8/10
f 6/1/11 7/2/13 21/3/14 20/4/12
f 7/2/13 8/5/15 22/6/16 21/3/14
f 8/5/15 9/9/17 23/10/18 22/6/16
f 9/193/17 10/194/19 24/195/20 23/196/18
f 10/194/19 11/197/21 25/198/22 24/195/20
f 11/197/21 12/199/23 26/200/24 25/198/22
f 12/17/23 13/11/25 27/14/26 26/18/24
f 13/11/25 14/12/27 28/13/28 27/14/26
f 14/12/27 1/15/1 15/16/4 28/13/28
f 69/73/29 94/74/30 68/75/31
f 84/101/32 98/102/33 83/103/34
f 13/129/25 12/130/23 29/131/35 30/132/36
f 12/130/23 11/133/21 31/134/37 29/131/35
f 11/133/21 10/137/19 32/138/38 31/134/37
f 10/137/19 9/141/17 33/142/39 32/138/38
f 9/141/17 8/145/15 34/146/40 33/142/39
f 8/145/15 7/149/13 35/150/41 34/146/40
f 7/149/13 6/153/11 36/154/42 35/150/41
f 6/153/11 5/155/9 37/156/43 36/154/42
f 5/155/9 4/151/7 38/152/44 37/156/43
f 4/151/7 3/147/5 39/148/45 38/152/44
f 3/147/5 2/143/2 40/144/46 39/148/45
f 2/143/2 1/139/1 41/140/47 40/144/46
f 1/139/1 14/135/27 42/136/48 41/140/47
f 14/135/27 13/129/25 30/132/36 42/136/48
f 28/157/28 15/158/4 44/159/49 43/160/50
f 15/158/4 16/161/3 45/162/51 44/159/49
f 16/161/3 17/165/6 46/166/52 45/162/51
f 17/165/6 18/169/8 47/170/53 46/166/52
f 18/169/8 19/173/10 48/174/54 47/170/53
f 19/173/10 20/177/12 49/178/55 48/174/54
f 20/177/12 21/181/14 50/182/56 49/178/55
f 21/181/14 22/183/16 51/184/57 50/182/56
f 22/183/16 23/179/18 52/180/58 51/184/57
f 23/179/18 24/175/20 53/176/59 52/180/58
f 24/175/20 25/171/22 54/172/60 53/176/59
f 25/171/22 26/167/24 55/168/61 54/172/60
f 26/167/24 27/163/26 56/164/62 55/168/61
f 27/163/26 28/157/28 43/160/50 56/164/62
f 30/35/36 29/39/35 57/40/63 58/36/64
f 29/201/35 31/202/37 59/203/65 57/204/63
f 31/202/37 32/205/38 60/206/66 59/203/65
f 32/205/38 33/207/39 61/208/67 60/206/66
f 33/27/39 34/21/40 62/24/68 61/28/67
f 34/21/40 35/22/41 63/23/69 62/24/68
f 35/22/41 36/25/42 64/26/70 63/23/69
f 36/25/42 37/29/43 65/30/71 64/26/70
f 37/209/43 38/210/44 66/211/72 65/212/71
f 38/210/44 39/213/45 67/214/73 66/211/72
f 39/213/45 40/215/46 68/216/31 67/214/73
f 40/37/46 41/31/47 69/34/29 68/38/31
f 41/31/47 42/32/48 70/33/74 69/34/29
f 42/32/48 30/35/36 58/36/64 70/33/74
f 43/41/50 44/42/49 72/43/75 71/44/76
f 44/42/49 45/45/51 73/46/77 72/43/75
f 45/217/51 46/218/52 74/219/78 73/220/77
f 46/218/52 47/221/53 75/222/79 74/219/78
f 47/221/53 48/223/54 76/224/80 75/222/79
f 48/57/54 49/51/55 77/54/81 76/58/80
f 49/51/55 50/52/56 78/53/82 77/54/81
f 50/52/56 51/55/57 79/56/83 78/53/82
f 51/55/57 52/59/58 80/60/84 79/56/83
f 52/225/58 53/226/59 81/227/85 80/228/84
f 53/226/59 54/229/60 82/230/86 81/227/85
f 54/229/60 55/231/61 83/232/34 82/230/86
f 55/49/61 56/47/62 84/48/32 83/50/34
f 56/47/62 43/41/50 71/44/76 84/48/32
f 71/104/76 72/109/75 97/110/87 101/111/88 102/105/89
f 82/108/86 85/107/90 86/112/91 81/113/85
f 81/113/85 86/112/91 106/117/92 100/118/93 80/119/84
f 98/102/33 84/101/32 71/104/76 102/105/89 103/106/94
f 73/114/77 97/110/87 72/109/75
f 88/120/95 87/115/96 74/116/78 75/121/79
f 76/125/80 99/126/97 104/127/98 88/120/95 75/121/79
f 70/76/74 58/81/64 93/82/99 107/83/100 108/77/101
f 66/85/72 92/84/102 112/89/103 96/90/104 65/91/71
f 67/80/73 91/79/105 92/84/102 66/85/72
f 58/81/64 57/86/63 93/82/99
f 90/92/106 89/88/107 59/87/65 60/93/66
f 61/97/67 95/98/108 110/99/109 90/92/106 60/93/66
f 94/74/30 69/73/29 70/76/74 108/77/101 109/78/110
f 93/82/99 57/86/63 59/87/65 89/88/107 107/83/100
f 68/75/31 94/74/30 109/78/110 91/79/105 67/80/73
f 62/100/68 95/98/108 61/97/67
f 65/91/71 96/90/104 64/96/70
f 87/115/96 101/111/88 97/110/87 73/114/77 74/116/78
f 83/103/34 98/102/33 103/106/94 85/107/90 82/108/86
f 77/128/81 99/126/97 76/125/80
f 80/119/84 100/118/93 79/124/83
f 78/123/82 105/122/111 104/127/98 99/126/97 77/128/81
f 100/118/93 106/117/92 105/122/111 78/123/82 79/124/83
f 63/95/69 111/94/112 110/99/109 95/98/108 62/100/68
f 96/90/104 112/89/103 111/94/112 63/95/69 64/96/70
f 104/61/98 105/62/111 111/63/112 112/64/103
f 105/62/111 106/65/92 110/66/109 111/63/112
f 101/233/88 87/234/96 91/235/105 109/236/110
f 87/234/96 88/237/95 92/238/102 91/235/105
f 88/237/95 104/239/98 112/240/103 92/238/102
f 103/67/94 102/68/89 108/69/101 107/70/100
f 102/68/89 101/71/88 109/72/110 108/69/101
f 106/241/92 86/242/91 90/243/106 110/244/109
f 86/242/91 85/245/90 89/246/107 90/243/106
f 85/245/90 103/247/94 107/248/100 89/246/107
