# Blender 4.2.3 LTS
# www.blender.org
mtllib Flags.mtl
o Flags
v -2.300000 1.811667 4.000000
v 2.300000 1.787749 4.000000
v -2.300000 1.851732 4.000000
v 2.300000 1.827819 4.000000
v -2.172222 1.787749 4.000000
v -2.044444 1.763352 4.000000
v -1.916666 1.738700 4.000000
v -1.788889 1.714016 4.000000
v -1.661111 1.689525 4.000000
v -1.533333 1.665450 4.000000
v -1.405555 1.642015 4.000000
v -1.277778 1.619444 4.000000
v -1.150000 1.597960 4.000000
v -1.022222 1.577787 4.000000
v -0.894444 1.559150 4.000000
v -0.766666 1.542272 4.000000
v -0.638889 1.527376 4.000000
v -0.511111 1.514687 4.000000
v -0.383333 1.504428 4.000000
v -0.255555 1.496823 4.000000
v -0.127778 1.492096 4.000000
v 0.000000 1.490471 4.000000
v 0.127778 1.490471 4.000000
v 0.255556 1.492096 4.000000
v 0.383333 1.496823 4.000000
v 0.511111 1.504428 4.000000
v 0.638889 1.514687 4.000000
v 0.766667 1.527376 4.000000
v 0.894445 1.542272 4.000000
v 1.022222 1.559150 4.000000
v 1.150000 1.577788 4.000000
v 1.277778 1.597960 4.000000
v 1.405556 1.619444 4.000000
v 1.533334 1.642015 4.000000
v 1.661111 1.665450 4.000000
v 1.788889 1.689525 4.000000
v 1.916667 1.714016 4.000000
v 2.044444 1.738700 4.000000
v 2.172222 1.763352 4.000000
v 2.172222 1.803427 4.000000
v 2.044444 1.778780 4.000000
v 1.916666 1.754102 4.000000
v 1.788889 1.729617 4.000000
v 1.661111 1.705547 4.000000
v 1.533333 1.682117 4.000000
v 1.405555 1.659552 4.000000
v 1.277778 1.638073 4.000000
v 1.150000 1.617906 4.000000
v 1.022222 1.599275 4.000000
v 0.894444 1.582402 4.000000
v 0.766666 1.567512 4.000000
v 0.638889 1.554828 4.000000
v 0.511111 1.544574 4.000000
v 0.383333 1.536975 4.000000
v 0.255555 1.532254 4.000000
v 0.127778 1.530632 4.000000
v -0.000000 1.530632 4.000000
v -0.127778 1.532254 4.000000
v -0.255556 1.536975 4.000000
v -0.383333 1.544574 4.000000
v -0.511111 1.554828 4.000000
v -0.638889 1.567512 4.000000
v -0.766667 1.582402 4.000000
v -0.894445 1.599275 4.000000
v -1.022222 1.617907 4.000000
v -1.150000 1.638073 4.000000
v -1.277778 1.659552 4.000000
v -1.405556 1.682118 4.000000
v -1.533334 1.705547 4.000000
v -1.661111 1.729617 4.000000
v -1.788889 1.754102 4.000000
v -1.916667 1.778781 4.000000
v -2.044444 1.803427 4.000000
v -2.172222 1.827819 4.000000
v -2.044444 1.602916 4.000000
v -1.916666 1.578264 4.000000
v -1.788889 1.553581 4.000000
v -1.661111 1.529089 4.000000
v -1.533333 1.505014 4.000000
v -1.405555 1.481579 4.000000
v -1.277778 1.459008 4.000000
v -1.150000 1.437524 4.000000
v -1.022222 1.417352 4.000000
v -0.894444 1.398715 4.000000
v -0.766666 1.381836 4.000000
v -0.638889 1.366940 4.000000
v -0.511111 1.354251 4.000000
v -0.383333 1.343992 4.000000
v -0.255555 1.336388 4.000000
v -0.127778 1.331661 4.000000
v 0.000000 1.330035 4.000000
v 0.127778 1.330035 4.000000
v 0.255556 1.331661 4.000000
v 0.383333 1.336388 4.000000
v 0.511111 1.343992 4.000000
v 0.638889 1.354251 4.000000
v 0.766667 1.366940 4.000000
v 0.894445 1.381836 4.000000
v 1.022222 1.398715 4.000000
v 1.150000 1.417352 4.000000
v 1.277778 1.437524 4.000000
v 1.405556 1.459008 4.000000
v 1.533334 1.481579 4.000000
v 1.661111 1.505014 4.000000
v 1.788889 1.529089 4.000000
v 1.916667 1.553581 4.000000
v 2.044444 1.578264 4.000000
v 2.172222 1.602916 4.000000
vn -0.0000 -0.0000 1.0000
vt 0.978858 0.755358
vt 0.981934 0.822891
vt 0.981934 0.933808
vt 0.978858 0.866290
vt 0.869058 0.889099
vt 0.872344 0.822891
vt 0.872225 0.933808
vt 0.868263 1.000000
vt 0.875626 0.755358
vt 0.875528 0.866290
vt 0.878906 0.687119
vt 0.878817 0.798066
vt 0.882184 0.618792
vt 0.882094 0.729754
vt 0.885457 0.550999
vt 0.885357 0.661976
vt 0.888721 0.484357
vt 0.888607 0.595349
vt 0.891971 0.419487
vt 0.891844 0.530494
vt 0.895200 0.357008
vt 0.895068 0.468030
vt 0.898398 0.297539
vt 0.898279 0.408577
vt 0.901555 0.241700
vt 0.901476 0.352753
vt 0.904771 0.190110
vt 0.904660 0.301178
vt 0.908095 0.143390
vt 0.907830 0.254473
vt 0.911136 0.102157
vt 0.910987 0.213256
vt 0.914131 0.067032
vt 0.914131 0.178146
vt 0.917345 0.038635
vt 0.917345 0.149764
vt 0.920421 0.017584
vt 0.920421 0.128728
vt 0.923496 0.004499
vt 0.923496 0.115658
vt 0.926572 0.000000
vt 0.926572 0.111171
vt 0.929648 0.000000
vt 0.929648 0.111171
vt 0.932723 0.004499
vt 0.932723 0.115658
vt 0.935799 0.017584
vt 0.935799 0.128728
vt 0.938875 0.038635
vt 0.938875 0.149764
vt 0.941950 0.067032
vt 0.941950 0.178146
vt 0.945026 0.102157
vt 0.945026 0.213256
vt 0.948102 0.143390
vt 0.948101 0.254473
vt 0.951177 0.190110
vt 0.951177 0.301178
vt 0.954253 0.241700
vt 0.954253 0.352753
vt 0.957328 0.297539
vt 0.957328 0.408576
vt 0.960404 0.357008
vt 0.960404 0.468030
vt 0.963480 0.419487
vt 0.963480 0.530494
vt 0.966555 0.484357
vt 0.966555 0.595349
vt 0.969631 0.550999
vt 0.969631 0.661976
vt 0.972707 0.618792
vt 0.972707 0.729754
vt 0.975782 0.687119
vt 0.975782 0.798065
vt 0.604906 0.866808
vt 0.558405 0.922234
vt 0.558405 0.055427
vt 0.604906 0.000000
vt 0.651201 0.922234
vt 0.651201 0.055427
vt 0.234548 0.993424
vt 0.188253 0.866808
vt 0.188253 0.000000
vt 0.234548 0.126616
vt 0.373310 0.866808
vt 0.327137 0.982881
vt 0.327137 0.116073
vt 0.373310 0.000000
vt 0.697496 0.866808
vt 0.651201 0.892347
vt 0.651201 0.025540
vt 0.697496 0.000000
vt 0.512317 0.947286
vt 0.466022 0.866808
vt 0.466022 0.000000
vt 0.512317 0.080479
vt 0.049368 0.866808
vt 0.002694 1.000000
vt 0.002694 0.133193
vt 0.049368 0.000000
vt 0.141958 0.999129
vt 0.095663 0.866808
vt 0.095663 0.000000
vt 0.141958 0.132322
vt 0.419727 0.866807
vt 0.373288 0.967501
vt 0.373288 0.100694
vt 0.419727 0.000000
vt 0.790086 0.866807
vt 0.743791 0.866807
vt 0.743791 0.000000
vt 0.790086 0.000000
vt 0.466022 0.967502
vt 0.419727 0.866807
vt 0.419727 0.000000
vt 0.466022 0.100694
vt 0.188253 0.866808
vt 0.188253 0.000000
vt 0.095663 1.000000
vt 0.049368 0.866807
vt 0.049368 0.000000
vt 0.095663 0.133192
vt 0.558476 0.866808
vt 0.558476 0.000000
vt 0.743791 0.892347
vt 0.743791 0.025540
vt 0.280843 0.866808
vt 0.280843 0.000000
vt 0.280843 0.866808
vt 0.234548 0.993423
vt 0.234548 0.126616
vt 0.280843 0.000000
s 0
usemtl Material.013
f 39/1/1 2/2/1 4/3/1 40/4/1
f 1/5/1 5/6/1 74/7/1 3/8/1
f 5/6/1 6/9/1 73/10/1 74/7/1
f 6/9/1 7/11/1 72/12/1 73/10/1
f 7/11/1 8/13/1 71/14/1 72/12/1
f 8/13/1 9/15/1 70/16/1 71/14/1
f 9/15/1 10/17/1 69/18/1 70/16/1
f 10/17/1 11/19/1 68/20/1 69/18/1
f 11/19/1 12/21/1 67/22/1 68/20/1
f 12/21/1 13/23/1 66/24/1 67/22/1
f 13/23/1 14/25/1 65/26/1 66/24/1
f 14/25/1 15/27/1 64/28/1 65/26/1
f 15/27/1 16/29/1 63/30/1 64/28/1
f 16/29/1 17/31/1 62/32/1 63/30/1
f 17/31/1 18/33/1 61/34/1 62/32/1
f 18/33/1 19/35/1 60/36/1 61/34/1
f 19/35/1 20/37/1 59/38/1 60/36/1
f 20/37/1 21/39/1 58/40/1 59/38/1
f 21/39/1 22/41/1 57/42/1 58/40/1
f 22/41/1 23/43/1 56/44/1 57/42/1
f 23/43/1 24/45/1 55/46/1 56/44/1
f 24/45/1 25/47/1 54/48/1 55/46/1
f 25/47/1 26/49/1 53/50/1 54/48/1
f 26/49/1 27/51/1 52/52/1 53/50/1
f 27/51/1 28/53/1 51/54/1 52/52/1
f 28/53/1 29/55/1 50/56/1 51/54/1
f 29/55/1 30/57/1 49/58/1 50/56/1
f 30/57/1 31/59/1 48/60/1 49/58/1
f 31/59/1 32/61/1 47/62/1 48/60/1
f 32/61/1 33/63/1 46/64/1 47/62/1
f 33/63/1 34/65/1 45/66/1 46/64/1
f 34/65/1 35/67/1 44/68/1 45/66/1
f 35/67/1 36/69/1 43/70/1 44/68/1
f 36/69/1 37/71/1 42/72/1 43/70/1
f 37/71/1 38/73/1 41/74/1 42/72/1
f 38/73/1 39/1/1 40/4/1 41/74/1
usemtl Material.014
f 19/75/1 18/76/1 87/77/1 88/78/1
f 27/79/1 26/75/1 95/78/1 96/80/1
f 35/81/1 34/82/1 103/83/1 104/84/1
f 13/85/1 12/86/1 81/87/1 82/88/1
f 21/89/1 20/90/1 89/91/1 90/92/1
f 29/93/1 28/94/1 97/95/1 98/96/1
f 7/97/1 6/98/1 75/99/1 76/100/1
f 37/101/1 36/102/1 105/103/1 106/104/1
f 15/105/1 14/106/1 83/107/1 84/108/1
f 23/109/1 22/110/1 91/111/1 92/112/1
f 31/113/1 30/114/1 99/115/1 100/116/1
f 9/117/1 8/101/1 77/104/1 78/118/1
f 39/119/1 38/120/1 107/121/1 108/122/1
f 17/123/1 16/93/1 85/96/1 86/124/1
f 25/125/1 24/89/1 93/92/1 94/126/1
f 33/86/1 32/127/1 101/128/1 102/87/1
f 11/129/1 10/130/1 79/131/1 80/132/1
