# Blender 4.2.3 LTS
# www.blender.org
mtllib fennel2.mtl
o Grass1
v 0.001434 -0.000062 0.006926
v 0.043272 0.063612 0.006478
v 0.001543 -0.000091 -0.003546
v 0.043335 0.064916 0.004929
v 0.002073 0.011210 0.007322
v 0.004782 0.021819 0.008497
v 0.011920 0.032360 0.007536
v 0.021159 0.041359 0.007017
v 0.031565 0.048937 0.006190
v 0.032494 0.047802 -0.004384
v 0.023389 0.041830 -0.007419
v 0.013069 0.032594 -0.010442
v 0.006082 0.022002 -0.006965
v 0.002454 0.011199 -0.004408
v 0.005773 -0.000160 -0.004308
v -0.018706 0.018542 -0.052710
v -0.003798 -0.000140 0.000857
v -0.020007 0.019853 -0.051957
v 0.003806 0.010680 -0.006740
v 0.002321 0.020462 -0.011291
v 0.000708 0.029035 -0.017269
v -0.002767 0.034317 -0.024695
v -0.009269 0.032844 -0.035455
v -0.018019 0.033645 -0.030204
v -0.016821 0.035101 -0.017180
v -0.016421 0.029869 -0.010554
v -0.012822 0.021073 -0.004138
v -0.007156 0.010875 -0.001047
v 0.005274 0.010791 0.003725
v 0.006004 0.020798 0.007026
v 0.007593 0.029775 0.011888
v 0.008235 0.035814 0.018700
v 0.007625 0.035835 0.026825
v -0.002384 0.035372 0.029306
v -0.006778 0.035167 0.019617
v -0.008901 0.029306 0.011516
v -0.008829 0.020638 0.005934
v -0.006684 0.010774 0.002353
v 0.004855 0.029155 0.049513
v 0.006133 -0.000151 0.001502
v 0.003259 0.027798 0.049518
v -0.004553 -0.000152 0.000179
v 0.004079 -0.000157 0.002792
v 0.035482 0.027603 -0.037847
v -0.003873 -0.000157 -0.004092
v 0.034317 0.028914 -0.038788
v 0.005681 0.010780 0.000143
v 0.009300 0.020690 -0.002983
v 0.013873 0.029454 -0.007141
v 0.018789 0.035368 -0.014159
v 0.025017 0.035832 -0.025298
v 0.017770 0.036498 -0.031910
v 0.008474 0.036072 -0.025647
v 0.003686 0.030170 -0.022313
v -0.000850 0.020951 -0.015288
v -0.002762 0.010798 -0.008003
v -0.003390 0.010765 0.005661
v -0.006328 0.020681 0.007122
v -0.011015 0.029512 0.009615
v -0.018258 0.035394 0.011379
v -0.025955 0.035222 0.010087
v -0.027402 0.035345 -0.001433
v -0.016523 0.035167 -0.005504
v -0.008818 0.029306 -0.008011
v -0.003969 0.020564 -0.008574
v -0.001308 0.010734 -0.006866
v -0.047399 0.028918 0.006877
v -0.001431 -0.000151 0.005986
v -0.047124 0.027630 0.005250
v 0.000173 -0.000153 -0.004981
vn -0.8060 0.5891 -0.0577
vn -0.9974 0.0681 -0.0221
vn -0.9583 0.2799 -0.0575
vn -0.8354 0.5469 -0.0544
vn -0.6771 0.7338 -0.0546
vn -0.5609 0.8227 -0.0927
vn -0.1541 0.8226 -0.5473
vn 0.4513 0.2782 0.8479
vn 0.4055 0.4496 0.7959
vn 0.3353 0.6118 0.7164
vn 0.2809 0.8040 0.5241
vn 0.0005 0.9925 -0.1224
vn -0.0447 0.9990 -0.0031
vn -0.0385 0.7845 -0.6189
vn 0.0301 0.5073 -0.8613
vn 0.0842 0.3315 -0.9397
vn 0.1153 0.2109 -0.9707
vn -0.0798 0.9444 0.3191
vn 0.3871 0.9011 -0.1953
vn -0.6462 0.2914 0.7053
vn -0.6439 0.4847 0.5920
vn -0.6228 0.6157 0.4828
vn -0.4887 0.7665 0.4167
vn 0.0132 0.9979 0.0628
vn -0.0002 1.0000 -0.0037
vn 0.6274 0.7762 0.0618
vn 0.8813 0.4581 0.1161
vn 0.9510 0.2715 0.1482
vn 0.9737 0.1691 0.1525
vn -0.3260 0.9438 -0.0546
vt 0.833333 0.000000
vt 1.000000 0.000000
vt 1.000000 1.000000
vt 0.833333 1.000000
vt 0.000000 0.000000
vt 0.166667 0.000000
vt 0.166667 1.000000
vt 0.000000 1.000000
vt 0.333333 0.000000
vt 0.333333 1.000000
vt 0.500000 0.000000
vt 0.500000 1.000000
vt 0.666667 0.000000
vt 0.666667 1.000000
s 0
f 9/1/1 2/2/1 4/3/1 10/4/1
f 1/5/2 5/6/2 14/7/2 3/8/2
f 5/6/3 6/9/3 13/10/3 14/7/3
f 6/9/4 7/11/4 12/12/4 13/10/4
f 7/11/5 8/13/5 11/14/5 12/12/5
f 8/13/6 9/1/6 10/4/6 11/14/6
f 23/1/7 16/2/7 18/3/7 24/4/7
f 15/5/8 19/6/8 28/7/8 17/8/8
f 19/6/9 20/9/9 27/10/9 28/7/9
f 20/9/10 21/11/10 26/12/10 27/10/10
f 21/11/11 22/13/11 25/14/11 26/12/11
f 22/13/12 23/1/12 24/4/12 25/14/12
f 35/13/13 34/1/13 33/4/13 32/14/13
f 36/11/14 35/13/14 32/14/14 31/12/14
f 37/9/15 36/11/15 31/12/15 30/10/15
f 38/6/16 37/9/16 30/10/16 29/7/16
f 42/5/17 38/6/17 29/7/17 40/8/17
f 34/1/18 41/2/18 39/3/18 33/4/18
f 51/1/19 44/2/19 46/3/19 52/4/19
f 43/5/20 47/6/20 56/7/20 45/8/20
f 47/6/21 48/9/21 55/10/21 56/7/21
f 48/9/22 49/11/22 54/12/22 55/10/22
f 49/11/23 50/13/23 53/14/23 54/12/23
f 50/13/24 51/1/24 52/4/24 53/14/24
f 63/13/25 62/1/25 61/4/25 60/14/25
f 64/11/26 63/13/26 60/14/26 59/12/26
f 65/9/27 64/11/27 59/12/27 58/10/27
f 66/6/28 65/9/28 58/10/28 57/7/28
f 70/5/29 66/6/29 57/7/29 68/8/29
f 62/1/30 69/2/30 67/3/30 61/4/30
