# Blender 4.2.3 LTS
# www.blender.org
mtllib POESign.mtl
o Cube.002
v -0.071933 -0.000000 0.071931
v -0.071933 0.015310 0.087241
v -0.087243 0.015310 0.071931
v -0.071933 1.984691 0.087241
v -0.071933 2.000000 0.071931
v -0.087243 1.984691 0.071931
v -0.071933 -0.000000 -0.071931
v -0.087243 0.015310 -0.071931
v -0.071933 0.015310 -0.087241
v -0.071933 2.000000 -0.071931
v -0.071933 1.984691 -0.087241
v -0.087243 1.984691 -0.071931
v 0.071929 -0.000000 0.071931
v 0.087239 0.015310 0.071931
v 0.071929 0.015310 0.087241
v 0.071929 2.000000 0.071931
v 0.071929 1.984691 0.087241
v 0.087239 1.984691 0.071931
v 0.071929 -0.000000 -0.071931
v 0.071929 0.015310 -0.087241
v 0.087239 0.015310 -0.071931
v 0.071929 2.000000 -0.071931
v 0.087239 1.984691 -0.071931
v 0.071929 1.984691 -0.087241
v 0.017665 1.433661 0.948091
v 0.017665 1.447885 0.964414
v 0.002355 1.448935 0.949140
v 0.017665 2.414985 1.030880
v 0.017665 2.431308 1.016656
v 0.002355 2.416034 1.015606
v 0.017665 1.568692 -1.016656
v 0.002355 1.583966 -1.015606
v 0.017665 1.585016 -1.030880
v 0.017665 2.566339 -0.948091
v 0.017665 2.552115 -0.964414
v 0.002355 2.551066 -0.949140
v 0.107045 1.433661 0.948091
v 0.122355 1.448935 0.949140
v 0.107045 1.447885 0.964414
v 0.107045 2.431308 1.016656
v 0.107045 2.414985 1.030880
v 0.122355 2.416034 1.015606
v 0.107045 1.568692 -1.016656
v 0.107045 1.585016 -1.030880
v 0.122355 1.583966 -1.015606
v 0.107045 2.566339 -0.948091
v 0.122355 2.551066 -0.949140
v 0.107045 2.552115 -0.964414
v -0.068565 0.008631 0.068564
v -0.068565 0.018677 0.078610
v -0.078612 0.018677 0.068564
v -0.068565 1.981323 0.078610
v -0.068565 1.991369 0.068564
v -0.078612 1.981323 0.068564
v -0.068565 0.008631 -0.068564
v -0.078612 0.018677 -0.068564
v -0.068565 0.018677 -0.078610
v -0.068565 1.991369 -0.068564
v -0.068565 1.981323 -0.078610
v -0.078612 1.981323 -0.068564
v 0.068562 0.008631 0.068564
v 0.078609 0.018677 0.068564
v 0.068562 0.018677 0.078610
v 0.068562 1.991369 0.068564
v 0.068562 1.981323 0.078610
v 0.078609 1.981323 0.068564
v 0.068562 0.008631 -0.068564
v 0.068562 0.018677 -0.078610
v 0.078609 0.018677 -0.068564
v 0.068562 1.991369 -0.068564
v 0.078609 1.981323 -0.068564
v 0.068562 1.981323 -0.078610
v 0.021032 1.442503 0.945323
v 0.021032 1.451836 0.956034
v 0.010986 1.452525 0.946012
v 0.021032 2.412217 1.022038
v 0.021032 2.422928 1.012705
v 0.010986 2.412906 1.012016
v 0.021032 1.577072 -1.012705
v 0.010986 1.587095 -1.012016
v 0.021032 1.587783 -1.022038
v 0.021032 2.557498 -0.945323
v 0.021032 2.548164 -0.956034
v 0.010986 2.547475 -0.946012
v 0.103678 1.442503 0.945323
v 0.113725 1.452525 0.946012
v 0.103678 1.451836 0.956034
v 0.103678 2.422928 1.012705
v 0.103678 2.412217 1.022038
v 0.113725 2.412906 1.012016
v 0.103678 1.577072 -1.012705
v 0.103678 1.587783 -1.022038
v 0.113725 1.587095 -1.012016
v 0.103678 2.557498 -0.945323
v 0.113725 2.547475 -0.946012
v 0.103678 2.548164 -0.956034
vn -0.0000 -1.0000 -0.0000
vn -0.0000 -0.0000 1.0000
vn 1.0000 -0.0000 -0.0000
vn -0.0000 -0.9976 -0.0686
vn -0.0000 1.0000 -0.0000
vn -1.0000 -0.0000 -0.0000
vn -0.0000 -0.0000 -1.0000
vn -0.0000 -0.0686 0.9976
vn -0.0000 0.9976 0.0686
vn -0.0000 0.0686 -0.9976
vn -0.5773 -0.5774 0.5774
vn -0.5773 0.5774 0.5774
vn -0.5773 -0.5774 -0.5773
vn -0.5773 0.5774 -0.5774
vn 0.5773 -0.5774 0.5774
vn 0.5773 0.5774 0.5774
vn 0.5773 -0.5774 -0.5774
vn 0.5773 0.5774 -0.5774
vn -0.5773 -0.6156 0.5364
vn -0.5773 0.5364 0.6156
vn -0.5774 -0.5364 -0.6156
vn -0.5773 0.6156 -0.5364
vn 0.5773 -0.6156 0.5364
vn 0.5773 0.5364 0.6156
vn 0.5773 -0.5364 -0.6156
vn 0.5773 0.6156 -0.5364
vn -0.7071 -0.7071 -0.0000
vn -0.7071 -0.0000 0.7071
vn -0.7071 0.7071 -0.0000
vn -0.7071 -0.0000 -0.7071
vn -0.0000 -0.7071 -0.7071
vn -0.0000 0.7071 -0.7071
vn 0.7071 -0.0000 -0.7071
vn 0.7071 -0.7071 -0.0000
vn 0.7071 0.7071 -0.0000
vn 0.7071 -0.0000 0.7071
vn -0.0000 -0.7071 0.7071
vn -0.0000 0.7071 0.7071
vn -0.7071 -0.7055 -0.0485
vn -0.7071 -0.0485 0.7055
vn -0.7071 0.7055 0.0485
vn -0.7071 0.0485 -0.7054
vn -0.0000 -0.6570 -0.7539
vn -0.0000 0.7539 -0.6570
vn 0.7071 0.0485 -0.7055
vn 0.7071 -0.7055 -0.0485
vn 0.7071 0.7055 0.0485
vn 0.7071 -0.0485 0.7055
vn -0.0000 -0.7539 0.6570
vn -0.0000 0.6570 0.7539
vn 0.5774 0.5774 -0.5773
vn 0.5774 -0.5774 -0.5773
vn 0.5773 0.5774 0.5773
vn 0.5774 -0.5774 0.5773
vn -0.5773 0.5774 -0.5773
vn -0.5773 -0.5774 0.5773
vn 0.5774 -0.5364 -0.6155
vn -0.5774 -0.5365 -0.6155
vn -0.5774 0.5365 0.6155
vn -0.7071 0.0485 -0.7055
vt 0.444350 0.023799
vt 0.455848 0.023799
vt 0.455848 0.035291
vt 0.444350 0.035291
vt 0.617688 0.411310
vt 0.775095 0.411310
vt 0.775095 0.422809
vt 0.617688 0.422809
vt 0.617683 0.397768
vt 0.775095 0.397768
vt 0.775095 0.409267
vt 0.617683 0.409267
vt 0.775095 0.424852
vt 0.775095 0.431996
vt 0.617776 0.431996
vt 0.617776 0.424852
vt 0.444350 0.010264
vt 0.455848 0.010264
vt 0.455848 0.021756
vt 0.444350 0.021756
vt 0.458229 0.397768
vt 0.615640 0.397768
vt 0.615640 0.409267
vt 0.458229 0.409267
vt 0.458238 0.411310
vt 0.615645 0.411310
vt 0.615645 0.422809
vt 0.458238 0.422809
vt 0.378847 0.318243
vt 0.456186 0.318243
vt 0.456186 0.325387
vt 0.378847 0.325387
vt 0.984646 0.504448
vt 0.984646 0.983336
vt 0.011744 0.983336
vt 0.011744 0.504448
vt 0.615733 0.424852
vt 0.615733 0.431996
vt 0.458414 0.431996
vt 0.458414 0.424852
vt 0.458229 0.395725
vt 0.458229 0.318243
vt 0.615640 0.318243
vt 0.615640 0.395725
vt 0.378847 0.327430
vt 0.456186 0.327430
vt 0.456186 0.334574
vt 0.378847 0.334574
vt 0.454118 0.098271
vt 0.454983 0.096772
vt 0.455848 0.098271
vt 0.454119 0.125101
vt 0.455848 0.125101
vt 0.454984 0.126600
vt 0.454118 0.110937
vt 0.455848 0.110937
vt 0.454983 0.112435
vt 0.455848 0.094729
vt 0.454118 0.094729
vt 0.454983 0.093231
vt 0.454983 0.086148
vt 0.455848 0.087646
vt 0.454118 0.087646
vt 0.455848 0.130142
vt 0.454119 0.130142
vt 0.454984 0.128643
vt 0.454118 0.101812
vt 0.454983 0.100313
vt 0.455848 0.101812
vt 0.455848 0.084105
vt 0.454118 0.084105
vt 0.454984 0.082607
vt 0.454118 0.132185
vt 0.455848 0.132185
vt 0.454984 0.133684
vt 0.454984 0.089689
vt 0.455848 0.091188
vt 0.454118 0.091188
vt 0.454118 0.114478
vt 0.455848 0.114478
vt 0.454983 0.115976
vt 0.454984 0.121560
vt 0.455848 0.123059
vt 0.454118 0.123059
vt 0.454118 0.103855
vt 0.455848 0.103855
vt 0.454983 0.105353
vt 0.455848 0.137225
vt 0.454119 0.137225
vt 0.454984 0.135726
vt 0.454118 0.108894
vt 0.454983 0.107396
vt 0.455848 0.108894
vt 0.454984 0.119518
vt 0.454118 0.118019
vt 0.455848 0.118019
vt 0.455848 0.046611
vt 0.444353 0.046611
vt 0.444353 0.044881
vt 0.455848 0.044881
vt 0.617687 0.481057
vt 0.775093 0.481057
vt 0.775095 0.482773
vt 0.617688 0.482773
vt 0.444353 0.041107
vt 0.455848 0.041107
vt 0.455848 0.042838
vt 0.444353 0.042838
vt 0.615644 0.482773
vt 0.458237 0.482773
vt 0.458236 0.481057
vt 0.615642 0.481057
vt 0.455848 0.054157
vt 0.444350 0.054157
vt 0.444350 0.052427
vt 0.455848 0.052427
vt 0.444350 0.059972
vt 0.455848 0.059972
vt 0.455848 0.061702
vt 0.444350 0.061702
vt 0.456369 0.426568
vt 0.298963 0.426568
vt 0.298965 0.424852
vt 0.456371 0.424852
vt 0.444353 0.048654
vt 0.455848 0.048654
vt 0.455848 0.050385
vt 0.444353 0.050385
vt 0.455848 0.039064
vt 0.444353 0.039064
vt 0.444353 0.037333
vt 0.455848 0.037333
vt 0.456369 0.430326
vt 0.298963 0.430326
vt 0.298965 0.428610
vt 0.456371 0.428610
vt 0.455848 0.057929
vt 0.444350 0.057929
vt 0.444350 0.056200
vt 0.455848 0.056200
vt 0.444350 0.063745
vt 0.455848 0.063745
vt 0.455848 0.065474
vt 0.444350 0.065474
vt 0.775095 0.475241
vt 0.617729 0.475241
vt 0.617729 0.473510
vt 0.775095 0.473510
vt 0.378747 0.378588
vt 0.456186 0.378588
vt 0.456178 0.380304
vt 0.378740 0.380304
vt 0.458321 0.473510
vt 0.615686 0.473510
vt 0.615686 0.475241
vt 0.458321 0.475241
vt 0.456178 0.402444
vt 0.378740 0.402444
vt 0.378747 0.400728
vt 0.456186 0.400728
vt 0.455848 0.069247
vt 0.448704 0.069247
vt 0.448704 0.067517
vt 0.455848 0.067517
vt 0.448704 0.078834
vt 0.455848 0.078834
vt 0.455848 0.080564
vt 0.448704 0.080564
vt 0.456186 0.387821
vt 0.378747 0.387821
vt 0.378740 0.386105
vt 0.456178 0.386105
vt 0.617729 0.477284
vt 0.775095 0.477284
vt 0.775095 0.479014
vt 0.617729 0.479014
vt 0.615686 0.479014
vt 0.458321 0.479014
vt 0.458321 0.477284
vt 0.615686 0.477284
vt 0.456186 0.384062
vt 0.378747 0.384062
vt 0.378740 0.382347
vt 0.456178 0.382347
vt 0.455848 0.073019
vt 0.448704 0.073019
vt 0.448704 0.071290
vt 0.455848 0.071290
vt 0.448704 0.075062
vt 0.455848 0.075062
vt 0.455848 0.076792
vt 0.448704 0.076792
s 0
usemtl Material.027
f 7/1/1 19/2/1 13/3/1 1/4/1
f 15/5/2 17/6/2 4/7/2 2/8/2
f 21/9/3 23/10/3 18/11/3 14/12/3
f 31/13/4 43/14/4 37/15/4 25/16/4
f 22/17/5 10/18/5 5/19/5 16/20/5
f 3/21/6 6/22/6 12/23/6 8/24/6
f 9/25/7 11/26/7 24/27/7 20/28/7
f 39/29/8 41/30/8 28/31/8 26/32/8
f 45/33/3 47/34/3 42/35/3 38/36/3
f 46/37/9 34/38/9 29/39/9 40/40/9
f 27/41/6 30/42/6 36/43/6 32/44/6
f 33/45/10 35/46/10 48/47/10 44/48/10
f 1/49/11 2/50/11 3/51/11
f 4/52/12 5/53/12 6/54/12
f 7/55/13 8/56/13 9/57/13
f 10/58/14 11/59/14 12/60/14
f 13/61/15 14/62/15 15/63/15
f 16/64/16 17/65/16 18/66/16
f 19/67/17 20/68/17 21/69/17
f 22/70/18 23/71/18 24/72/18
f 25/73/19 26/74/19 27/75/19
f 28/76/20 29/77/20 30/78/20
f 31/79/21 32/80/21 33/81/21
f 34/82/22 35/83/22 36/84/22
f 37/85/23 38/86/23 39/87/23
f 40/88/24 41/89/24 42/90/24
f 43/91/25 44/92/25 45/93/25
f 46/94/26 47/95/26 48/96/26
f 7/97/27 1/98/27 3/99/27 8/100/27
f 2/101/28 4/102/28 6/103/28 3/104/28
f 5/105/29 10/106/29 12/107/29 6/108/29
f 11/109/30 9/110/30 8/111/30 12/112/30
f 19/113/31 7/114/31 9/115/31 20/116/31
f 10/117/32 22/118/32 24/119/32 11/120/32
f 23/121/33 21/122/33 20/123/33 24/124/33
f 13/125/34 19/126/34 21/127/34 14/128/34
f 22/129/35 16/130/35 18/131/35 23/132/35
f 17/133/36 15/134/36 14/135/36 18/136/36
f 1/137/37 13/138/37 15/139/37 2/140/37
f 16/141/38 5/142/38 4/143/38 17/144/38
f 31/145/39 25/146/39 27/147/39 32/148/39
f 26/149/40 28/150/40 30/151/40 27/152/40
f 29/153/41 34/154/41 36/155/41 30/156/41
f 35/157/42 33/158/42 32/159/42 36/160/42
f 43/161/43 31/162/43 33/163/43 44/164/43
f 34/165/44 46/166/44 48/167/44 35/168/44
f 47/169/45 45/170/45 44/171/45 48/172/45
f 37/173/46 43/174/46 45/175/46 38/176/46
f 46/177/47 40/178/47 42/179/47 47/180/47
f 41/181/48 39/182/48 38/183/48 42/184/48
f 25/185/49 37/186/49 39/187/49 26/188/49
f 40/189/50 29/190/50 28/191/50 41/192/50
f 55/1/5 49/4/5 61/3/5 67/2/5
f 63/5/7 50/8/7 52/7/7 65/6/7
f 69/9/6 62/12/6 66/11/6 71/10/6
f 79/13/9 73/16/9 85/15/9 91/14/9
f 70/17/1 64/20/1 53/19/1 58/18/1
f 51/21/3 56/24/3 60/23/3 54/22/3
f 57/25/2 68/28/2 72/27/2 59/26/2
f 87/29/10 74/32/10 76/31/10 89/30/10
f 93/33/6 86/36/6 90/35/6 95/34/6
f 94/37/4 88/40/4 77/39/4 82/38/4
f 75/41/3 80/44/3 84/43/3 78/42/3
f 81/45/8 92/48/8 96/47/8 83/46/8
f 49/49/51 51/51/51 50/50/51
f 52/52/52 54/54/52 53/53/52
f 55/55/53 57/57/53 56/56/53
f 58/58/54 60/60/54 59/59/54
f 61/61/55 63/63/55 62/62/55
f 64/64/13 66/66/13 65/65/13
f 67/67/12 69/69/12 68/68/12
f 70/70/56 72/72/56 71/71/56
f 73/73/26 75/75/26 74/74/26
f 76/76/57 78/78/57 77/77/57
f 79/79/24 81/81/24 80/80/24
f 82/82/23 84/84/23 83/83/23
f 85/85/22 87/87/22 86/86/22
f 88/88/58 90/90/58 89/89/58
f 91/91/59 93/93/59 92/92/59
f 94/94/19 96/96/19 95/95/19
f 55/97/35 56/100/35 51/99/35 49/98/35
f 50/101/33 51/104/33 54/103/33 52/102/33
f 53/105/34 54/108/34 60/107/34 58/106/34
f 59/109/36 60/112/36 56/111/36 57/110/36
f 67/113/38 68/116/38 57/115/38 55/114/38
f 58/117/37 59/120/37 72/119/37 70/118/37
f 71/121/28 72/124/28 68/123/28 69/122/28
f 61/125/29 62/128/29 69/127/29 67/126/29
f 70/129/27 71/132/27 66/131/27 64/130/27
f 65/133/30 66/136/30 62/135/30 63/134/30
f 49/137/32 50/140/32 63/139/32 61/138/32
f 64/141/31 65/144/31 52/143/31 53/142/31
f 79/145/47 80/148/47 75/147/47 73/146/47
f 74/149/45 75/152/45 78/151/45 76/150/45
f 77/153/46 78/156/46 84/155/46 82/154/46
f 83/157/48 84/160/48 80/159/48 81/158/48
f 91/161/50 92/164/50 81/163/50 79/162/50
f 82/165/49 83/168/49 96/167/49 94/166/49
f 95/169/40 96/172/40 92/171/40 93/170/40
f 85/173/41 86/176/41 93/175/41 91/174/41
f 94/177/39 95/180/39 90/179/39 88/178/39
f 89/181/60 90/184/60 86/183/60 87/182/60
f 73/185/44 74/188/44 87/187/44 85/186/44
f 88/189/43 89/192/43 76/191/43 77/190/43
