# This file uses centimeters as units for non-parametric coordinates.

mtllib health.mtl
g default
v -0.120781 0.279179 0.000000
v -0.011113 -0.009743 0.000000
v -0.030972 -0.002198 0.000000
v -0.046206 0.019287 0.000000
v -0.059166 0.051441 0.000000
v -0.080594 0.089370 0.000000
v -0.120253 0.216937 0.155032
v -0.115817 0.196434 0.176210
v -0.103186 0.179053 0.194165
v -0.069166 0.167440 0.206162
v -0.024817 0.163362 0.210374
v 0.011113 -0.009743 0.000000
v 0.030972 -0.002198 0.000000
v 0.046206 0.019287 0.000000
v 0.059166 0.051441 0.000000
v 0.080594 0.089370 0.000000
v 0.120253 0.216937 0.155032
v 0.115817 0.196434 0.176210
v 0.103186 0.179053 0.194165
v 0.069166 0.167440 0.206162
v 0.024817 0.163362 0.210374
v -0.024817 0.553949 0.310877
v -0.069166 0.548885 0.307336
v -0.103186 0.534463 0.297255
v -0.115817 0.512878 0.282167
v -0.120253 0.487417 0.264369
v -0.120253 0.501644 0.213018
v -0.115817 0.531680 0.214304
v -0.103186 0.557142 0.215396
v -0.069166 0.574156 0.216125
v -0.024817 0.580130 0.216381
v 0.120253 0.487417 0.264369
v 0.115817 0.512878 0.282167
v 0.103186 0.534463 0.297255
v 0.069166 0.548885 0.307336
v 0.024817 0.553949 0.310877
v 0.120253 0.501644 0.213018
v 0.115817 0.531680 0.214304
v 0.103186 0.557142 0.215396
v 0.069166 0.574156 0.216125
v 0.024817 0.580130 0.216381
v -0.024817 0.553949 -0.310877
v -0.069166 0.548885 -0.307336
v -0.103186 0.534463 -0.297255
v -0.115817 0.512878 -0.282167
v -0.120253 0.487417 -0.264369
v -0.120253 0.469772 -0.276991
v -0.115817 0.479482 -0.306056
v -0.103186 0.487714 -0.330696
v -0.069166 0.493214 -0.347159
v -0.024817 0.495145 -0.352941
v 0.120253 0.487417 -0.264369
v 0.115817 0.512878 -0.282167
v 0.103186 0.534463 -0.297255
v 0.069166 0.548885 -0.307336
v 0.024817 0.553949 -0.310877
v 0.120253 0.469772 -0.276991
v 0.115817 0.479482 -0.306056
v 0.103186 0.487714 -0.330696
v 0.069166 0.493214 -0.347159
v 0.024817 0.495145 -0.352941
v -0.024817 0.438514 0.000000
v -0.069166 0.430290 0.000000
v -0.103186 0.406869 0.000000
v -0.115817 0.371818 0.000000
v -0.120253 0.330472 0.000000
v -0.120253 0.492168 -0.162278
v -0.115817 0.519299 -0.148011
v -0.103186 0.542299 -0.135917
v -0.069166 0.557667 -0.127835
v -0.024817 0.563064 -0.124997
v 0.120253 0.330472 0.000000
v 0.115817 0.371818 0.000000
v 0.103186 0.406869 0.000000
v 0.069166 0.430290 0.000000
v 0.024817 0.438514 0.000000
v 0.120253 0.492168 -0.162278
v 0.115817 0.519299 -0.148011
v 0.103186 0.542299 -0.135917
v 0.069166 0.557667 -0.127835
v 0.024817 0.563064 -0.124997
v -0.024817 0.300867 0.316227
v -0.069166 0.303602 0.310980
v -0.103186 0.311390 0.296038
v -0.115817 0.323045 0.273676
v -0.120253 0.336793 0.247298
v -0.120253 0.433881 0.277850
v -0.115817 0.429724 0.307246
v -0.103186 0.426200 0.332167
v -0.069166 0.423845 0.348819
v -0.024817 0.423018 0.354666
v -0.024817 0.300867 -0.316227
v -0.069166 0.303602 -0.310980
v -0.103186 0.311390 -0.296038
v -0.115817 0.323045 -0.273676
v -0.120253 0.336793 -0.247298
v -0.120253 0.216937 -0.155032
v -0.115817 0.196434 -0.176210
v -0.103186 0.179053 -0.194165
v -0.069166 0.167440 -0.206162
v -0.024817 0.163362 -0.210374
v 0.120253 0.336793 -0.247298
v 0.115817 0.323045 -0.273676
v 0.103186 0.311390 -0.296038
v 0.069166 0.303602 -0.310980
v 0.024817 0.300867 -0.316227
v 0.120253 0.216937 -0.155032
v 0.115817 0.196434 -0.176210
v 0.103186 0.179053 -0.194165
v 0.069166 0.167440 -0.206162
v 0.024817 0.163362 -0.210374
v 0.120253 0.336793 0.247298
v 0.115817 0.323045 0.273676
v 0.103186 0.311390 0.296038
v 0.069166 0.303602 0.310980
v 0.024817 0.300867 0.316227
v 0.120253 0.433881 0.277850
v 0.115817 0.429724 0.307246
v 0.103186 0.426200 0.332167
v 0.069166 0.423845 0.348819
v 0.024817 0.423018 0.354666
v -0.024817 0.423018 -0.354666
v -0.069166 0.423845 -0.348819
v -0.103186 0.426200 -0.332167
v -0.115817 0.429724 -0.307246
v -0.120253 0.433881 -0.277850
v -0.120253 0.469772 0.276991
v -0.115817 0.479482 0.306056
v -0.103186 0.487714 0.330696
v -0.069166 0.493214 0.347159
v -0.024817 0.495145 0.352941
v 0.120253 0.469772 0.276991
v 0.115817 0.479482 0.306056
v 0.103186 0.487714 0.330696
v 0.069166 0.493214 0.347159
v 0.024817 0.495145 0.352941
v 0.120253 0.433881 -0.277850
v 0.115817 0.429724 -0.307246
v 0.103186 0.426200 -0.332167
v 0.069166 0.423845 -0.348819
v 0.024817 0.423018 -0.354666
v -0.120253 0.501644 -0.213018
v -0.115817 0.531680 -0.214304
v -0.103186 0.557142 -0.215396
v -0.069166 0.574156 -0.216125
v -0.024817 0.580130 -0.216381
v 0.120253 0.501644 -0.213018
v 0.115817 0.531680 -0.214304
v 0.103186 0.557142 -0.215396
v 0.069166 0.574156 -0.216125
v 0.024817 0.580130 -0.216381
v -0.024817 0.563064 0.124997
v -0.069166 0.557667 0.127835
v -0.103186 0.542299 0.135917
v -0.115817 0.519299 0.148011
v -0.120253 0.492168 0.162278
v 0.120253 0.492168 0.162278
v 0.115817 0.519299 0.148011
v 0.103186 0.542299 0.135917
v 0.069166 0.557667 0.127835
v 0.024817 0.563064 0.124997
vt 0.434531 0.269891
vt 0.403713 0.269891
vt 0.521522 0.126717
vt 0.538180 0.143925
vt 0.538180 0.395856
vt 0.521522 0.413064
vt 0.377587 0.269891
vt 0.507400 0.112129
vt 0.624395 0.047525
vt 0.635566 0.068957
vt 0.588753 0.269891
vt 0.714451 0.044133
vt 0.743613 0.044831
vt 0.757950 0.055087
vt 0.769510 0.096811
vt 0.761810 0.138037
vt 0.630430 0.269891
vt 0.761810 0.401744
vt 0.769510 0.442970
vt 0.757950 0.484694
vt 0.743613 0.494950
vt 0.714451 0.495648
vt 0.635566 0.470824
vt 0.624395 0.492256
vt 0.507400 0.427652
vt 0.360130 0.269891
vt 0.497964 0.102381
vt 0.614925 0.029355
vt 0.711073 0.020249
vt 0.751502 0.021216
vt 0.778637 0.040626
vt 0.793914 0.095765
vt 0.783854 0.149629
vt 0.664024 0.269891
vt 0.783854 0.390152
vt 0.793914 0.444016
vt 0.778637 0.499155
vt 0.751502 0.518565
vt 0.711073 0.519533
vt 0.614925 0.510426
vt 0.497964 0.437400
vt 0.708210 0.000000
vt 0.758191 0.001196
vt 0.796175 0.028367
vt 0.814602 0.094879
vt 0.802542 0.159456
vt 0.692504 0.269891
vt 0.802542 0.380325
vt 0.814602 0.444903
vt 0.796175 0.511415
vt 0.758191 0.538586
vt 0.708210 0.539781
vt 0.074404 0.269902
vt 0.043585 0.269902
vt 0.161398 0.126723
vt 0.178057 0.143931
vt 0.178057 0.395872
vt 0.161398 0.413081
vt 0.017458 0.269902
vt 0.147276 0.112134
vt 0.264275 0.047527
vt 0.275447 0.068960
vt 0.354335 0.044136
vt 0.383498 0.044833
vt 0.397836 0.055089
vt 0.409396 0.096815
vt 0.401696 0.138043
vt 0.270311 0.269902
vt 0.401696 0.401760
vt 0.409396 0.442989
vt 0.397836 0.484714
vt 0.383498 0.494970
vt 0.354335 0.495668
vt 0.275447 0.470843
vt 0.264275 0.492277
vt 0.147276 0.427670
vt 0.000000 0.269902
vt 0.137839 0.102386
vt 0.254805 0.029357
vt 0.350957 0.020250
vt 0.391388 0.021217
vt 0.418524 0.040628
vt 0.433801 0.095769
vt 0.423741 0.149636
vt 0.303906 0.269902
vt 0.423741 0.390168
vt 0.433801 0.444034
vt 0.418524 0.499176
vt 0.391388 0.518587
vt 0.350957 0.519554
vt 0.254805 0.510447
vt 0.137839 0.437418
vt 0.348094 0.000000
vt 0.398077 0.001196
vt 0.436062 0.028368
vt 0.454491 0.094883
vt 0.442430 0.159463
vt 0.332387 0.269902
vt 0.442430 0.380340
vt 0.454491 0.444921
vt 0.436062 0.511435
vt 0.398077 0.538608
vt 0.348094 0.539803
vt 0.814795 0.049976
vt 0.845325 0.040928
vt 0.845325 0.122785
vt 0.814795 0.123439
vt 0.814795 0.019965
vt 0.845325 0.005190
vt 0.885125 0.037751
vt 0.885125 0.122555
vt 0.845325 0.202019
vt 0.814795 0.194767
vt 0.885125 0.000001
vt 0.929669 0.037751
vt 0.929669 0.122555
vt 0.885125 0.204566
vt 0.845325 0.316743
vt 0.814795 0.316743
vt 0.929669 0.000001
vt 0.969470 0.040928
vt 0.969470 0.122785
vt 0.929669 0.204566
vt 0.885125 0.316743
vt 0.845325 0.431467
vt 0.814795 0.438720
vt 0.969470 0.005190
vt 1.000000 0.049976
vt 1.000000 0.123439
vt 0.969470 0.202019
vt 0.929669 0.316743
vt 0.885125 0.428920
vt 0.845325 0.510701
vt 0.814795 0.510047
vt 1.000000 0.019965
vt 1.000000 0.194767
vt 0.969470 0.316743
vt 0.929669 0.428920
vt 0.885125 0.510931
vt 0.845325 0.592558
vt 0.814795 0.583511
vt 1.000000 0.316743
vt 0.969470 0.431467
vt 0.929669 0.510931
vt 0.885125 0.595735
vt 0.845325 0.628297
vt 0.814795 0.613522
vt 1.000000 0.438720
vt 0.969470 0.510701
vt 0.929669 0.595735
vt 0.885125 0.633485
vt 1.000000 0.510047
vt 0.969470 0.592558
vt 0.929669 0.633485
vt 1.000000 0.583511
vt 0.969470 0.628297
vt 1.000000 0.613522
vt 0.396143 0.721465
vt 0.426237 0.714576
vt 0.426237 0.820943
vt 0.396143 0.823026
vt 0.396143 0.604401
vt 0.426237 0.594127
vt 0.465468 0.712157
vt 0.465468 0.820212
vt 0.426237 0.882307
vt 0.396143 0.877441
vt 0.465468 0.590520
vt 0.509375 0.712157
vt 0.509375 0.820212
vt 0.465468 0.884015
vt 0.460023 0.444066
vt 0.477591 0.437392
vt 0.509375 0.590520
vt 0.548605 0.714576
vt 0.548605 0.820943
vt 0.509375 0.884015
vt 0.497252 0.437392
vt 0.548605 0.594127
vt 0.578699 0.721465
vt 0.578699 0.823026
vt 0.548605 0.882307
vt 0.514819 0.444066
vt 0.578699 0.604401
vt 0.578699 0.877441
vt 0.069325 0.514030
vt 0.113231 0.514030
vt 0.113231 0.622085
vt 0.069325 0.622085
vt 0.069325 0.450227
vt 0.113231 0.450227
vt 0.152462 0.619666
vt 0.152462 0.513299
vt 0.113231 0.743722
vt 0.069325 0.743722
vt 0.030094 0.619666
vt 0.030094 0.513299
vt 0.152462 0.451935
vt 0.030094 0.451935
vt 0.152462 0.740114
vt 0.182556 0.612777
vt 0.182556 0.511216
vt 0.101109 0.896850
vt 0.081447 0.896850
vt 0.030094 0.740114
vt 0.000000 0.612777
vt 0.000000 0.511216
vt 0.182556 0.456801
vt 0.000000 0.456801
vt 0.182556 0.729841
vt 0.118676 0.890176
vt 0.063880 0.890176
vt 0.000000 0.729841
vn -0.992082 -0.125590 0.000000
vn -0.906332 -0.422566 0.000000
vn -0.934732 -0.325371 0.142864
vn -0.997488 -0.070234 -0.009254
vn -0.720649 -0.693300 -0.000000
vn -0.723841 -0.542627 0.426158
vn -0.366499 -0.930418 0.000000
vn -0.333959 -0.681714 0.650951
vn -0.096522 -0.995331 -0.000000
vn -0.075808 -0.701604 0.708523
vn 0.992122 -0.125277 -0.000000
vn 0.906332 -0.422566 -0.000000
vn 0.934732 -0.325370 -0.142864
vn 0.997222 -0.070215 0.024857
vn 0.720649 -0.693300 0.000000
vn 0.723841 -0.542627 -0.426158
vn 0.366499 -0.930418 -0.000000
vn 0.333959 -0.681714 -0.650951
vn 0.096522 -0.995331 -0.000000
vn 0.075808 -0.701604 -0.708523
vn -0.998940 -0.043242 -0.015809
vn -0.941306 0.291947 0.169440
vn -0.943720 0.330364 0.015884
vn -0.998969 -0.041801 -0.017708
vn -0.627060 0.666150 0.403782
vn -0.632555 0.773600 0.037636
vn -0.272232 0.819127 0.504896
vn -0.269479 0.961857 0.047027
vn -0.063746 0.847685 0.526656
vn -0.062273 0.996863 0.048855
vn -0.998940 -0.043242 0.015809
vn -0.941306 0.291947 -0.169440
vn -0.940550 0.100207 -0.324538
vn -0.998797 -0.046766 0.014725
vn -0.627060 0.666150 -0.403782
vn -0.625306 0.241067 -0.742212
vn -0.272232 0.819127 -0.504896
vn -0.270054 0.302514 -0.914087
vn -0.063746 0.847685 -0.526656
vn -0.063055 0.316030 -0.946652
vn -0.999042 -0.043767 0.000000
vn -0.987056 0.160376 -0.000000
vn -0.948214 0.256296 0.187624
vn -0.999093 -0.034580 0.024858
vn -0.849580 0.527460 -0.000000
vn -0.647171 0.627335 0.433153
vn -0.409581 0.912274 0.000000
vn -0.276646 0.798785 0.534237
vn -0.091302 0.995823 0.000000
vn -0.063611 0.834039 0.548027
vn -0.998683 -0.050671 -0.008080
vn -0.948243 -0.155321 0.276966
vn -0.946393 -0.064586 0.316494
vn -0.998766 -0.048226 -0.011831
vn -0.645459 -0.372162 0.666991
vn -0.639848 -0.147349 0.754243
vn -0.271873 -0.468009 0.840864
vn -0.269701 -0.181010 0.945779
vn -0.062116 -0.484906 0.872357
vn -0.061793 -0.185732 0.980655
vn -0.998683 -0.050671 0.008080
vn -0.948243 -0.155321 -0.276965
vn -0.934732 -0.325371 -0.142864
vn -0.997488 -0.070234 0.009254
vn -0.645459 -0.372162 -0.666991
vn -0.723841 -0.542627 -0.426158
vn -0.271873 -0.468009 -0.840864
vn -0.333959 -0.681714 -0.650951
vn -0.062116 -0.484906 -0.872357
vn -0.075808 -0.701604 -0.708523
vn 0.075808 -0.701604 0.708523
vn -0.063611 0.834039 -0.548027
vn 0.063611 0.834039 -0.548027
vn 0.091302 0.995823 0.000000
vn 0.997222 -0.070215 -0.024857
vn 0.999043 -0.043739 0.000000
vn 0.998580 -0.034562 -0.040552
vn 0.998538 -0.041783 -0.034279
vn 0.998538 -0.043224 -0.032448
vn 0.998410 -0.046748 -0.031497
vn 0.998436 -0.048210 -0.028322
vn 0.998426 -0.050658 -0.024058
vn -0.998801 -0.048953 0.000000
vn -0.998797 -0.046766 -0.014725
vn -0.999093 -0.034580 -0.024858
vn -0.998969 -0.041801 0.017708
vn -0.998766 -0.048226 0.011831
vn 0.998426 -0.050658 0.024058
vn 0.998436 -0.048210 0.028322
vn 0.998410 -0.046748 0.031497
vn 0.998538 -0.043224 0.032448
vn 0.998538 -0.041783 0.034279
vn 0.998580 -0.034562 0.040552
vn -0.062273 0.996863 -0.048855
vn 0.062273 0.996863 -0.048855
vn 0.063746 0.847685 -0.526656
vn 0.063055 0.316030 -0.946652
vn -0.063055 0.316030 0.946651
vn 0.063055 0.316030 0.946651
vn 0.063746 0.847685 0.526656
vn 0.062116 -0.484906 0.872358
vn 0.061793 -0.185732 0.980655
vn -0.061793 -0.185732 -0.980655
vn 0.061793 -0.185732 -0.980655
vn 0.062116 -0.484906 -0.872357
vn 0.063611 0.834039 0.548027
vn 0.062273 0.996863 0.048855
vn 0.333959 -0.681714 0.650951
vn 0.723841 -0.542627 0.426158
vn 0.934732 -0.325371 0.142864
vn 0.272232 0.819127 0.504896
vn 0.270054 0.302515 0.914087
vn 0.627060 0.666150 0.403782
vn 0.625306 0.241067 0.742212
vn 0.941306 0.291947 0.169440
vn 0.940550 0.100207 0.324538
vn 0.269479 0.961857 0.047027
vn 0.632555 0.773600 0.037636
vn 0.943720 0.330364 0.015884
vn 0.272232 0.819127 -0.504896
vn 0.269479 0.961857 -0.047027
vn 0.627060 0.666150 -0.403782
vn 0.632555 0.773600 -0.037636
vn 0.941306 0.291947 -0.169440
vn 0.943720 0.330364 -0.015884
vn 0.270054 0.302514 -0.914087
vn 0.625307 0.241067 -0.742212
vn 0.940550 0.100207 -0.324538
vn -0.948214 0.256296 -0.187624
vn -0.647171 0.627335 -0.433153
vn -0.276646 0.798785 -0.534237
vn -0.269479 0.961857 -0.047027
vn -0.632555 0.773600 -0.037636
vn -0.943720 0.330364 -0.015884
vn 0.409581 0.912274 0.000000
vn 0.276646 0.798785 -0.534237
vn 0.849580 0.527459 0.000000
vn 0.647171 0.627335 -0.433153
vn 0.987056 0.160376 0.000000
vn 0.948214 0.256296 -0.187624
vn 0.276646 0.798785 0.534237
vn 0.647171 0.627335 0.433153
vn 0.948214 0.256296 0.187624
vn -0.270054 0.302515 0.914087
vn -0.625307 0.241067 0.742212
vn -0.940550 0.100207 0.324538
vn -0.946393 -0.064586 -0.316494
vn -0.639848 -0.147349 -0.754243
vn -0.269701 -0.181010 -0.945779
vn 0.271873 -0.468009 -0.840864
vn 0.269701 -0.181010 -0.945779
vn 0.645459 -0.372162 -0.666991
vn 0.639848 -0.147349 -0.754243
vn 0.948243 -0.155321 -0.276965
vn 0.946393 -0.064586 -0.316494
vn 0.271873 -0.468009 0.840864
vn 0.645459 -0.372162 0.666991
vn 0.948243 -0.155321 0.276966
vn 0.269701 -0.181010 0.945779
vn 0.639848 -0.147349 0.754243
vn 0.946393 -0.064586 0.316494
s 1
g pCube1
usemtl initialShadingGroup
f 6/1/1 5/2/2 8/3/3 7/4/4
f 5/2/2 4/7/5 9/8/6 8/3/3
f 4/7/5 3/26/7 10/27/8 9/8/6
f 3/172/7 2/173/9 11/168/10 10/163/8
f 16/53/11 15/54/12 108/55/13 107/56/14
f 15/54/12 14/59/15 109/60/16 108/55/13
f 14/59/15 13/77/17 110/78/18 109/60/16
f 13/211/17 12/203/19 111/194/20 110/200/18
f 26/14/21 25/31/22 28/32/23 27/15/24
f 25/31/22 24/44/25 29/45/26 28/32/23
f 24/104/25 23/105/27 30/106/28 29/107/26
f 23/105/27 22/110/29 31/111/30 30/106/28
f 46/20/31 45/37/32 48/38/33 47/21/34
f 45/37/32 44/50/35 49/51/36 48/38/33
f 44/141/35 43/140/37 50/146/38 49/147/36
f 43/140/37 42/145/39 51/151/40 50/146/38
f 66/17/41 65/34/42 68/35/43 67/18/44
f 65/34/42 64/47/45 69/48/46 68/35/43
f 64/119/45 63/118/47 70/125/48 69/126/46
f 63/118/47 62/124/49 71/132/50 70/125/48
f 86/10/51 85/9/52 88/29/53 87/12/54
f 85/9/52 84/28/55 89/42/56 88/29/53
f 84/158/55 83/159/57 90/160/58 89/161/56
f 83/159/57 82/164/59 91/165/60 90/160/58
f 96/23/61 95/24/62 98/6/63 97/5/64
f 95/24/62 94/40/65 99/25/66 98/6/63
f 94/206/65 93/196/67 100/205/68 99/213/66
f 93/196/67 92/189/69 101/195/70 100/205/68
f 2/173/9 12/178/19 21/174/71 11/168/10
f 152/117/72 161/123/73 76/131/74 62/124/49
f 101/195/70 111/194/20 12/203/19 2/204/9
f 17/57/75 16/53/11 72/68/76 157/69/77 37/70/78 32/71/79 132/72/80 117/73/81 112/74/82
f 1/11/83 6/1/1 7/4/4 86/10/51 87/12/54 127/13/84 26/14/21 27/15/24 156/16/85 66/17/41
f 97/5/64 6/1/1 1/11/83 66/17/41 67/18/44 142/19/86 46/20/31 47/21/34 126/22/87 96/23/61
f 16/53/11 107/56/14 102/62/88 137/63/89 57/64/90 52/65/91 147/66/92 77/67/93 72/68/76
f 146/139/94 151/144/95 56/150/96 42/145/39
f 42/145/39 56/150/96 61/154/97 51/151/40
f 131/114/98 136/120/99 36/115/100 22/110/29
f 82/164/59 116/169/101 121/170/102 91/165/60
f 122/186/103 141/187/104 106/188/105 92/189/69
f 92/189/69 106/188/105 111/194/20 101/195/70
f 11/168/10 21/174/71 116/169/101 82/164/59
f 51/190/40 61/191/97 141/187/104 122/186/103
f 91/165/60 121/170/102 136/177/99 131/171/98
f 62/124/49 76/131/74 81/138/106 71/132/50
f 31/111/30 41/116/107 161/123/73 152/117/72
f 71/132/50 81/138/106 151/144/95 146/139/94
f 22/110/29 36/115/100 41/116/107 31/111/30
f 12/178/19 13/183/17 20/179/108 21/174/71
f 13/77/17 14/59/15 19/76/109 20/92/108
f 14/59/15 15/54/12 18/58/110 19/76/109
f 15/54/12 16/53/11 17/57/75 18/58/110
f 35/121/111 36/115/100 136/120/99 135/127/112
f 34/128/113 35/121/111 135/127/112 134/135/114
f 32/71/79 33/88/115 133/89/116 132/72/80
f 33/88/115 34/101/113 134/102/114 133/89/116
f 36/115/100 35/121/111 40/122/117 41/116/107
f 35/121/111 34/128/113 39/129/118 40/122/117
f 34/101/113 33/88/115 38/87/119 39/100/118
f 33/88/115 32/71/79 37/70/78 38/87/119
f 55/153/120 56/150/96 151/144/95 150/149/121
f 54/155/122 55/153/120 150/149/121 149/152/123
f 52/65/91 53/82/124 148/83/125 147/66/92
f 53/82/124 54/95/122 149/96/123 148/83/125
f 56/150/96 55/153/120 60/156/126 61/154/97
f 55/153/120 54/155/122 59/157/127 60/156/126
f 54/95/122 53/82/124 58/81/128 59/94/127
f 53/82/124 52/65/91 57/64/90 58/81/128
f 65/34/42 66/17/41 156/16/85 155/33/129
f 64/47/45 65/34/42 155/33/129 154/46/130
f 62/124/49 63/118/47 153/112/131 152/117/72
f 63/118/47 64/119/45 154/113/130 153/112/131
f 70/125/48 71/132/50 146/139/94 145/133/132
f 69/126/46 70/125/48 145/133/132 144/134/133
f 67/18/44 68/35/43 143/36/134 142/19/86
f 68/35/43 69/48/46 144/49/133 143/36/134
f 75/137/135 76/131/74 161/123/73 160/130/136
f 74/142/137 75/137/135 160/130/136 159/136/138
f 72/68/76 73/85/139 158/86/140 157/69/77
f 73/85/139 74/98/137 159/99/138 158/86/140
f 76/131/74 75/137/135 80/143/141 81/138/106
f 75/137/135 74/142/137 79/148/142 80/143/141
f 74/98/137 73/85/139 78/84/143 79/97/142
f 73/85/139 72/68/76 77/67/93 78/84/143
f 7/4/4 8/3/3 85/9/52 86/10/51
f 8/3/3 9/8/6 84/28/55 85/9/52
f 9/162/6 10/163/8 83/159/57 84/158/55
f 10/163/8 11/168/10 82/164/59 83/159/57
f 90/160/58 91/165/60 131/171/98 130/166/144
f 89/161/56 90/160/58 130/166/144 129/167/145
f 87/12/54 88/29/53 128/30/146 127/13/84
f 88/29/53 89/42/56 129/43/145 128/30/146
f 95/24/62 96/23/61 126/22/87 125/39/147
f 94/40/65 95/24/62 125/39/147 124/52/148
f 92/189/69 93/196/67 123/197/149 122/186/103
f 93/196/67 94/206/65 124/207/148 123/197/149
f 2/204/9 3/212/7 100/205/68 101/195/70
f 3/26/7 4/7/5 99/25/66 100/41/68
f 4/7/5 5/2/2 98/6/63 99/25/66
f 5/2/2 6/1/1 97/5/64 98/6/63
f 105/192/150 106/188/105 141/187/104 140/193/151
f 104/201/152 105/192/150 140/193/151 139/202/153
f 102/62/88 103/61/154 138/80/155 137/63/89
f 103/61/154 104/79/152 139/93/153 138/80/155
f 106/188/105 105/192/150 110/200/18 111/194/20
f 105/192/150 104/201/152 109/210/16 110/200/18
f 104/79/152 103/61/154 108/55/13 109/60/16
f 103/61/154 102/62/88 107/56/14 108/55/13
f 21/174/71 20/179/108 115/175/156 116/169/101
f 20/179/108 19/184/109 114/180/157 115/175/156
f 19/76/109 18/58/110 113/75/158 114/91/157
f 18/58/110 17/57/75 112/74/82 113/75/158
f 116/169/101 115/175/156 120/176/159 121/170/102
f 115/175/156 114/180/157 119/181/160 120/176/159
f 114/91/157 113/75/158 118/90/161 119/103/160
f 113/75/158 112/74/82 117/73/81 118/90/161
f 47/21/34 48/38/33 125/39/147 126/22/87
f 48/38/33 49/51/36 124/52/148 125/39/147
f 49/209/36 50/199/38 123/197/149 124/207/148
f 50/199/38 51/190/40 122/186/103 123/197/149
f 22/110/29 23/105/27 130/109/144 131/114/98
f 23/105/27 24/104/25 129/108/145 130/109/144
f 24/44/25 25/31/22 128/30/146 129/43/145
f 25/31/22 26/14/21 127/13/84 128/30/146
f 121/170/102 120/176/159 135/182/112 136/177/99
f 120/176/159 119/181/160 134/185/114 135/182/112
f 119/103/160 118/90/161 133/89/116 134/102/114
f 118/90/161 117/73/81 132/72/80 133/89/116
f 61/191/97 60/198/126 140/193/151 141/187/104
f 60/198/126 59/208/127 139/202/153 140/193/151
f 59/94/127 58/81/128 138/80/155 139/93/153
f 58/81/128 57/64/90 137/63/89 138/80/155
f 42/145/39 43/140/37 145/133/132 146/139/94
f 43/140/37 44/141/35 144/134/133 145/133/132
f 44/50/35 45/37/32 143/36/134 144/49/133
f 45/37/32 46/20/31 142/19/86 143/36/134
f 81/138/106 80/143/141 150/149/121 151/144/95
f 80/143/141 79/148/142 149/152/123 150/149/121
f 79/97/142 78/84/143 148/83/125 149/96/123
f 78/84/143 77/67/93 147/66/92 148/83/125
f 27/15/24 28/32/23 155/33/129 156/16/85
f 28/32/23 29/45/26 154/46/130 155/33/129
f 29/107/26 30/106/28 153/112/131 154/113/130
f 30/106/28 31/111/30 152/117/72 153/112/131
f 41/116/107 40/122/117 160/130/136 161/123/73
f 40/122/117 39/129/118 159/136/138 160/130/136
f 39/100/118 38/87/119 158/86/140 159/99/138
f 38/87/119 37/70/78 157/69/77 158/86/140
